M48
;DRILL file {KiCad 4.0.2-stable} date 02.07.2016 15:57:00
;FORMAT={2:4/ absolute / inch / suppress leading zeros}
FMAT,2
INCH,TZ
T1C0.016
T2C0.030
T3C0.031
T4C0.040
T5C0.087
%
G90
G05
M72
T1
X58050Y-37220
X59400Y-37510
X59630Y-36070
X60150Y-39900
X60310Y-34030
X61580Y-34550
X61830Y-34990
X62350Y-37790
X63225Y-35950
X63250Y-36900
X63475Y-36600
X63675Y-36200
X63700Y-35625
X64725Y-31175
X65300Y-40500
X66775Y-41550
X67350Y-42125
X67500Y-36925
X68500Y-34550
X70100Y-33325
X70125Y-37400
X70775Y-39450
X71425Y-35250
X72300Y-38850
T2
X64456Y-32844
X64456Y-40719
T3
X69550Y-40641
X69550Y-41625
T4
X57350Y-33850
X57350Y-34850
X57350Y-35850
X57350Y-36850
X57350Y-37850
X57350Y-38850
X58850Y-33850
X58850Y-34850
X58850Y-35850
X58850Y-36850
X58850Y-37850
X58850Y-38850
X72300Y-40100
X72300Y-41100
X73300Y-40100
X73300Y-41100
X73375Y-32175
X73375Y-33175
X73375Y-34175
X74300Y-40100
X74300Y-41100
X75150Y-32150
X75150Y-33150
X75150Y-34150
X75150Y-35150
X75150Y-36150
X75150Y-37150
T5
X57580Y-31620
X57640Y-41330
T0
M30
