G04 #@! TF.FileFunction,Soldermask,Top*
%FSLAX46Y46*%
G04 Gerber Fmt 4.6, Leading zero omitted, Abs format (unit mm)*
G04 Created by KiCad (PCBNEW 4.0.2-stable) date 02.07.2016 15:57:05*
%MOMM*%
G01*
G04 APERTURE LIST*
%ADD10C,0.100000*%
%ADD11R,2.432000X2.127200*%
%ADD12O,2.432000X2.127200*%
%ADD13R,1.400000X2.400000*%
%ADD14R,2.127200X2.127200*%
%ADD15O,2.127200X2.127200*%
%ADD16R,0.950000X2.000000*%
%ADD17R,2.000000X0.950000*%
%ADD18C,1.924000*%
%ADD19R,2.400000X2.900000*%
%ADD20R,1.200100X2.200860*%
%ADD21R,2.900000X2.400000*%
%ADD22R,1.700000X1.700000*%
%ADD23C,1.700000*%
%ADD24R,1.997660X2.200860*%
%ADD25C,2.600000*%
G04 APERTURE END LIST*
D10*
D11*
X145669000Y-85979000D03*
D12*
X145669000Y-88519000D03*
X145669000Y-91059000D03*
X145669000Y-93599000D03*
X145669000Y-96139000D03*
X145669000Y-98679000D03*
D13*
X173019000Y-96965000D03*
X174289000Y-96965000D03*
X175559000Y-96965000D03*
X176829000Y-96965000D03*
X178099000Y-96965000D03*
X179369000Y-96965000D03*
X180639000Y-96965000D03*
X181909000Y-96965000D03*
D14*
X183642000Y-104394000D03*
D15*
X183642000Y-101854000D03*
X186182000Y-104394000D03*
X186182000Y-101854000D03*
X188722000Y-104394000D03*
X188722000Y-101854000D03*
D16*
X160268000Y-95944000D03*
X161068000Y-95944000D03*
X161868000Y-95944000D03*
X162668000Y-95944000D03*
X163468000Y-95944000D03*
X164268000Y-95944000D03*
X165068000Y-95944000D03*
X165868000Y-95944000D03*
D17*
X167318000Y-94494000D03*
X167318000Y-93694000D03*
X167318000Y-92894000D03*
X167318000Y-92094000D03*
X167318000Y-91294000D03*
X167318000Y-90494000D03*
X167318000Y-89694000D03*
X167318000Y-88894000D03*
D16*
X165868000Y-87444000D03*
X165068000Y-87444000D03*
X164268000Y-87444000D03*
X163468000Y-87444000D03*
X162668000Y-87444000D03*
X161868000Y-87444000D03*
X161068000Y-87444000D03*
X160268000Y-87444000D03*
D17*
X158818000Y-88894000D03*
X158818000Y-89694000D03*
X158818000Y-90494000D03*
X158818000Y-91294000D03*
X158818000Y-92094000D03*
X158818000Y-92894000D03*
X158818000Y-93694000D03*
X158818000Y-94494000D03*
D11*
X149479000Y-85979000D03*
D12*
X149479000Y-88519000D03*
X149479000Y-91059000D03*
X149479000Y-93599000D03*
X149479000Y-96139000D03*
X149479000Y-98679000D03*
D18*
X163719500Y-103425000D03*
X163719500Y-83425000D03*
D19*
X154755600Y-80391000D03*
X150755600Y-80391000D03*
D11*
X190881000Y-81661000D03*
D12*
X190881000Y-84201000D03*
X190881000Y-86741000D03*
X190881000Y-89281000D03*
X190881000Y-91821000D03*
X190881000Y-94361000D03*
D20*
X155572500Y-84604860D03*
X153672500Y-84604860D03*
X154622500Y-87607140D03*
D11*
X186372500Y-81724500D03*
D12*
X186372500Y-84264500D03*
X186372500Y-86804500D03*
D21*
X167640000Y-84169000D03*
X167640000Y-80169000D03*
X154813000Y-97123000D03*
X154813000Y-93123000D03*
D19*
X165513000Y-99695000D03*
X169513000Y-99695000D03*
D22*
X176657000Y-105727500D03*
D23*
X176657000Y-103227500D03*
D24*
X153515060Y-105029000D03*
X150675340Y-105029000D03*
D21*
X160464500Y-80169000D03*
X160464500Y-84169000D03*
D19*
X162147000Y-99695000D03*
X158147000Y-99695000D03*
X160775400Y-105003600D03*
X156775400Y-105003600D03*
D25*
X146253200Y-80314800D03*
X146405600Y-104978200D03*
M02*
