G04 #@! TF.FileFunction,Legend,Top*
%FSLAX46Y46*%
G04 Gerber Fmt 4.6, Leading zero omitted, Abs format (unit mm)*
G04 Created by KiCad (PCBNEW 4.0.2-stable) date 02.07.2016 15:57:05*
%MOMM*%
G01*
G04 APERTURE LIST*
%ADD10C,0.100000*%
%ADD11C,0.125000*%
%ADD12C,0.150000*%
G04 APERTURE END LIST*
D10*
D11*
X186982124Y-85455914D02*
X187363076Y-85455914D01*
X185955038Y-88770590D02*
X185907419Y-88746781D01*
X185883610Y-88722971D01*
X185859800Y-88675352D01*
X185859800Y-88532495D01*
X185883610Y-88484876D01*
X185907419Y-88461067D01*
X185955038Y-88437257D01*
X186026467Y-88437257D01*
X186074086Y-88461067D01*
X186097895Y-88484876D01*
X186121705Y-88532495D01*
X186121705Y-88675352D01*
X186097895Y-88722971D01*
X186074086Y-88746781D01*
X186026467Y-88770590D01*
X185955038Y-88770590D01*
X186550276Y-88437257D02*
X186550276Y-88770590D01*
X186335991Y-88437257D02*
X186335991Y-88699162D01*
X186359800Y-88746781D01*
X186407419Y-88770590D01*
X186478848Y-88770590D01*
X186526467Y-88746781D01*
X186550276Y-88722971D01*
X186716943Y-88437257D02*
X186907419Y-88437257D01*
X186788372Y-88270590D02*
X186788372Y-88699162D01*
X186812181Y-88746781D01*
X186859800Y-88770590D01*
X186907419Y-88770590D01*
X186184410Y-79728190D02*
X186184410Y-79394857D01*
X186184410Y-79228190D02*
X186160600Y-79252000D01*
X186184410Y-79275810D01*
X186208219Y-79252000D01*
X186184410Y-79228190D01*
X186184410Y-79275810D01*
X186422505Y-79394857D02*
X186422505Y-79728190D01*
X186422505Y-79442476D02*
X186446314Y-79418667D01*
X186493933Y-79394857D01*
X186565362Y-79394857D01*
X186612981Y-79418667D01*
X186636790Y-79466286D01*
X186636790Y-79728190D01*
X147671600Y-90703447D02*
X147695410Y-90655828D01*
X147695410Y-90584400D01*
X147671600Y-90512971D01*
X147623981Y-90465352D01*
X147576362Y-90441543D01*
X147481124Y-90417733D01*
X147409695Y-90417733D01*
X147314457Y-90441543D01*
X147266838Y-90465352D01*
X147219219Y-90512971D01*
X147195410Y-90584400D01*
X147195410Y-90632019D01*
X147219219Y-90703447D01*
X147243029Y-90727257D01*
X147409695Y-90727257D01*
X147409695Y-90632019D01*
X147195410Y-90941543D02*
X147695410Y-90941543D01*
X147195410Y-91227257D01*
X147695410Y-91227257D01*
X147195410Y-91465353D02*
X147695410Y-91465353D01*
X147695410Y-91584400D01*
X147671600Y-91655829D01*
X147623981Y-91703448D01*
X147576362Y-91727257D01*
X147481124Y-91751067D01*
X147409695Y-91751067D01*
X147314457Y-91727257D01*
X147266838Y-91703448D01*
X147219219Y-91655829D01*
X147195410Y-91584400D01*
X147195410Y-91465353D01*
X147320819Y-86196562D02*
X147297010Y-86267991D01*
X147297010Y-86387038D01*
X147320819Y-86434657D01*
X147344629Y-86458467D01*
X147392248Y-86482276D01*
X147439867Y-86482276D01*
X147487486Y-86458467D01*
X147511295Y-86434657D01*
X147535105Y-86387038D01*
X147558914Y-86291800D01*
X147582724Y-86244181D01*
X147606533Y-86220372D01*
X147654152Y-86196562D01*
X147701771Y-86196562D01*
X147749390Y-86220372D01*
X147773200Y-86244181D01*
X147797010Y-86291800D01*
X147797010Y-86410848D01*
X147773200Y-86482276D01*
X147344629Y-86982276D02*
X147320819Y-86958466D01*
X147297010Y-86887038D01*
X147297010Y-86839419D01*
X147320819Y-86767990D01*
X147368438Y-86720371D01*
X147416057Y-86696562D01*
X147511295Y-86672752D01*
X147582724Y-86672752D01*
X147677962Y-86696562D01*
X147725581Y-86720371D01*
X147773200Y-86767990D01*
X147797010Y-86839419D01*
X147797010Y-86887038D01*
X147773200Y-86958466D01*
X147749390Y-86982276D01*
X147297010Y-87434657D02*
X147297010Y-87196562D01*
X147797010Y-87196562D01*
X151030810Y-98309953D02*
X151530810Y-98309953D01*
X151530810Y-98429000D01*
X151507000Y-98500429D01*
X151459381Y-98548048D01*
X151411762Y-98571857D01*
X151316524Y-98595667D01*
X151245095Y-98595667D01*
X151149857Y-98571857D01*
X151102238Y-98548048D01*
X151054619Y-98500429D01*
X151030810Y-98429000D01*
X151030810Y-98309953D01*
X151030810Y-99071857D02*
X151030810Y-98786143D01*
X151030810Y-98929000D02*
X151530810Y-98929000D01*
X151459381Y-98881381D01*
X151411762Y-98833762D01*
X151387952Y-98786143D01*
X151030810Y-95642953D02*
X151530810Y-95642953D01*
X151530810Y-95762000D01*
X151507000Y-95833429D01*
X151459381Y-95881048D01*
X151411762Y-95904857D01*
X151316524Y-95928667D01*
X151245095Y-95928667D01*
X151149857Y-95904857D01*
X151102238Y-95881048D01*
X151054619Y-95833429D01*
X151030810Y-95762000D01*
X151030810Y-95642953D01*
X151483190Y-96119143D02*
X151507000Y-96142953D01*
X151530810Y-96190572D01*
X151530810Y-96309619D01*
X151507000Y-96357238D01*
X151483190Y-96381048D01*
X151435571Y-96404857D01*
X151387952Y-96404857D01*
X151316524Y-96381048D01*
X151030810Y-96095334D01*
X151030810Y-96404857D01*
X151292714Y-92945829D02*
X151268905Y-93017258D01*
X151245095Y-93041067D01*
X151197476Y-93064877D01*
X151126048Y-93064877D01*
X151078429Y-93041067D01*
X151054619Y-93017258D01*
X151030810Y-92969639D01*
X151030810Y-92779163D01*
X151530810Y-92779163D01*
X151530810Y-92945829D01*
X151507000Y-92993448D01*
X151483190Y-93017258D01*
X151435571Y-93041067D01*
X151387952Y-93041067D01*
X151340333Y-93017258D01*
X151316524Y-92993448D01*
X151292714Y-92945829D01*
X151292714Y-92779163D01*
X151173667Y-93255353D02*
X151173667Y-93493448D01*
X151030810Y-93207734D02*
X151530810Y-93374401D01*
X151030810Y-93541067D01*
X151530810Y-93636305D02*
X151530810Y-93922019D01*
X151030810Y-93779162D02*
X151530810Y-93779162D01*
X151221286Y-94088686D02*
X151221286Y-94469638D01*
X151030810Y-94279162D02*
X151411762Y-94279162D01*
X151080019Y-86184658D02*
X151056210Y-86256087D01*
X151056210Y-86375134D01*
X151080019Y-86422753D01*
X151103829Y-86446563D01*
X151151448Y-86470372D01*
X151199067Y-86470372D01*
X151246686Y-86446563D01*
X151270495Y-86422753D01*
X151294305Y-86375134D01*
X151318114Y-86279896D01*
X151341924Y-86232277D01*
X151365733Y-86208468D01*
X151413352Y-86184658D01*
X151460971Y-86184658D01*
X151508590Y-86208468D01*
X151532400Y-86232277D01*
X151556210Y-86279896D01*
X151556210Y-86398944D01*
X151532400Y-86470372D01*
X151056210Y-86684658D02*
X151556210Y-86684658D01*
X151556210Y-86803705D01*
X151532400Y-86875134D01*
X151484781Y-86922753D01*
X151437162Y-86946562D01*
X151341924Y-86970372D01*
X151270495Y-86970372D01*
X151175257Y-86946562D01*
X151127638Y-86922753D01*
X151080019Y-86875134D01*
X151056210Y-86803705D01*
X151056210Y-86684658D01*
X151199067Y-87160848D02*
X151199067Y-87398943D01*
X151056210Y-87113229D02*
X151556210Y-87279896D01*
X151056210Y-87446562D01*
X151054619Y-87898362D02*
X151030810Y-87969791D01*
X151030810Y-88088838D01*
X151054619Y-88136457D01*
X151078429Y-88160267D01*
X151126048Y-88184076D01*
X151173667Y-88184076D01*
X151221286Y-88160267D01*
X151245095Y-88136457D01*
X151268905Y-88088838D01*
X151292714Y-87993600D01*
X151316524Y-87945981D01*
X151340333Y-87922172D01*
X151387952Y-87898362D01*
X151435571Y-87898362D01*
X151483190Y-87922172D01*
X151507000Y-87945981D01*
X151530810Y-87993600D01*
X151530810Y-88112648D01*
X151507000Y-88184076D01*
X151078429Y-88684076D02*
X151054619Y-88660266D01*
X151030810Y-88588838D01*
X151030810Y-88541219D01*
X151054619Y-88469790D01*
X151102238Y-88422171D01*
X151149857Y-88398362D01*
X151245095Y-88374552D01*
X151316524Y-88374552D01*
X151411762Y-88398362D01*
X151459381Y-88422171D01*
X151507000Y-88469790D01*
X151530810Y-88541219D01*
X151530810Y-88588838D01*
X151507000Y-88660266D01*
X151483190Y-88684076D01*
X151030810Y-89136457D02*
X151030810Y-88898362D01*
X151530810Y-88898362D01*
X151456200Y-90093847D02*
X151480010Y-90046228D01*
X151480010Y-89974800D01*
X151456200Y-89903371D01*
X151408581Y-89855752D01*
X151360962Y-89831943D01*
X151265724Y-89808133D01*
X151194295Y-89808133D01*
X151099057Y-89831943D01*
X151051438Y-89855752D01*
X151003819Y-89903371D01*
X150980010Y-89974800D01*
X150980010Y-90022419D01*
X151003819Y-90093847D01*
X151027629Y-90117657D01*
X151194295Y-90117657D01*
X151194295Y-90022419D01*
X150980010Y-90331943D02*
X151480010Y-90331943D01*
X150980010Y-90617657D01*
X151480010Y-90617657D01*
X150980010Y-90855753D02*
X151480010Y-90855753D01*
X151480010Y-90974800D01*
X151456200Y-91046229D01*
X151408581Y-91093848D01*
X151360962Y-91117657D01*
X151265724Y-91141467D01*
X151194295Y-91141467D01*
X151099057Y-91117657D01*
X151051438Y-91093848D01*
X151003819Y-91046229D01*
X150980010Y-90974800D01*
X150980010Y-90855753D01*
X147482714Y-92539429D02*
X147458905Y-92610858D01*
X147435095Y-92634667D01*
X147387476Y-92658477D01*
X147316048Y-92658477D01*
X147268429Y-92634667D01*
X147244619Y-92610858D01*
X147220810Y-92563239D01*
X147220810Y-92372763D01*
X147720810Y-92372763D01*
X147720810Y-92539429D01*
X147697000Y-92587048D01*
X147673190Y-92610858D01*
X147625571Y-92634667D01*
X147577952Y-92634667D01*
X147530333Y-92610858D01*
X147506524Y-92587048D01*
X147482714Y-92539429D01*
X147482714Y-92372763D01*
X147363667Y-92848953D02*
X147363667Y-93087048D01*
X147220810Y-92801334D02*
X147720810Y-92968001D01*
X147220810Y-93134667D01*
X147720810Y-93229905D02*
X147720810Y-93515619D01*
X147220810Y-93372762D02*
X147720810Y-93372762D01*
X147411286Y-93682286D02*
X147411286Y-94063238D01*
X147220810Y-93872762D02*
X147601762Y-93872762D01*
X147287467Y-98372658D02*
X147287467Y-98610753D01*
X147144610Y-98325039D02*
X147644610Y-98491706D01*
X147144610Y-98658372D01*
X147144610Y-99086943D02*
X147144610Y-98801229D01*
X147144610Y-98944086D02*
X147644610Y-98944086D01*
X147573181Y-98896467D01*
X147525562Y-98848848D01*
X147501752Y-98801229D01*
X147287467Y-95731058D02*
X147287467Y-95969153D01*
X147144610Y-95683439D02*
X147644610Y-95850106D01*
X147144610Y-96016772D01*
X147596990Y-96159629D02*
X147620800Y-96183439D01*
X147644610Y-96231058D01*
X147644610Y-96350105D01*
X147620800Y-96397724D01*
X147596990Y-96421534D01*
X147549371Y-96445343D01*
X147501752Y-96445343D01*
X147430324Y-96421534D01*
X147144610Y-96135820D01*
X147144610Y-96445343D01*
X147193819Y-87911858D02*
X147170010Y-87983287D01*
X147170010Y-88102334D01*
X147193819Y-88149953D01*
X147217629Y-88173763D01*
X147265248Y-88197572D01*
X147312867Y-88197572D01*
X147360486Y-88173763D01*
X147384295Y-88149953D01*
X147408105Y-88102334D01*
X147431914Y-88007096D01*
X147455724Y-87959477D01*
X147479533Y-87935668D01*
X147527152Y-87911858D01*
X147574771Y-87911858D01*
X147622390Y-87935668D01*
X147646200Y-87959477D01*
X147670010Y-88007096D01*
X147670010Y-88126144D01*
X147646200Y-88197572D01*
X147170010Y-88411858D02*
X147670010Y-88411858D01*
X147670010Y-88530905D01*
X147646200Y-88602334D01*
X147598581Y-88649953D01*
X147550962Y-88673762D01*
X147455724Y-88697572D01*
X147384295Y-88697572D01*
X147289057Y-88673762D01*
X147241438Y-88649953D01*
X147193819Y-88602334D01*
X147170010Y-88530905D01*
X147170010Y-88411858D01*
X147312867Y-88888048D02*
X147312867Y-89126143D01*
X147170010Y-88840429D02*
X147670010Y-89007096D01*
X147170010Y-89173762D01*
X188860881Y-86244499D02*
X188884690Y-86173070D01*
X188884690Y-86054023D01*
X188860881Y-86006404D01*
X188837071Y-85982594D01*
X188789452Y-85958785D01*
X188741833Y-85958785D01*
X188694214Y-85982594D01*
X188670405Y-86006404D01*
X188646595Y-86054023D01*
X188622786Y-86149261D01*
X188598976Y-86196880D01*
X188575167Y-86220689D01*
X188527548Y-86244499D01*
X188479929Y-86244499D01*
X188432310Y-86220689D01*
X188408500Y-86196880D01*
X188384690Y-86149261D01*
X188384690Y-86030213D01*
X188408500Y-85958785D01*
X188860881Y-85554023D02*
X188884690Y-85601642D01*
X188884690Y-85696880D01*
X188860881Y-85744499D01*
X188813262Y-85768309D01*
X188622786Y-85768309D01*
X188575167Y-85744499D01*
X188551357Y-85696880D01*
X188551357Y-85601642D01*
X188575167Y-85554023D01*
X188622786Y-85530214D01*
X188670405Y-85530214D01*
X188718024Y-85768309D01*
X188884690Y-85315928D02*
X188551357Y-85315928D01*
X188646595Y-85315928D02*
X188598976Y-85292119D01*
X188575167Y-85268309D01*
X188551357Y-85220690D01*
X188551357Y-85173071D01*
X188884690Y-85006404D02*
X188551357Y-85006404D01*
X188384690Y-85006404D02*
X188408500Y-85030214D01*
X188432310Y-85006404D01*
X188408500Y-84982595D01*
X188384690Y-85006404D01*
X188432310Y-85006404D01*
X188884690Y-84554024D02*
X188622786Y-84554024D01*
X188575167Y-84577833D01*
X188551357Y-84625452D01*
X188551357Y-84720690D01*
X188575167Y-84768309D01*
X188860881Y-84554024D02*
X188884690Y-84601643D01*
X188884690Y-84720690D01*
X188860881Y-84768309D01*
X188813262Y-84792119D01*
X188765643Y-84792119D01*
X188718024Y-84768309D01*
X188694214Y-84720690D01*
X188694214Y-84601643D01*
X188670405Y-84554024D01*
X188884690Y-84244500D02*
X188860881Y-84292119D01*
X188813262Y-84315928D01*
X188384690Y-84315928D01*
X188837071Y-83387357D02*
X188860881Y-83411167D01*
X188884690Y-83482595D01*
X188884690Y-83530214D01*
X188860881Y-83601643D01*
X188813262Y-83649262D01*
X188765643Y-83673071D01*
X188670405Y-83696881D01*
X188598976Y-83696881D01*
X188503738Y-83673071D01*
X188456119Y-83649262D01*
X188408500Y-83601643D01*
X188384690Y-83530214D01*
X188384690Y-83482595D01*
X188408500Y-83411167D01*
X188432310Y-83387357D01*
X188884690Y-83101643D02*
X188860881Y-83149262D01*
X188837071Y-83173071D01*
X188789452Y-83196881D01*
X188646595Y-83196881D01*
X188598976Y-83173071D01*
X188575167Y-83149262D01*
X188551357Y-83101643D01*
X188551357Y-83030214D01*
X188575167Y-82982595D01*
X188598976Y-82958786D01*
X188646595Y-82934976D01*
X188789452Y-82934976D01*
X188837071Y-82958786D01*
X188860881Y-82982595D01*
X188884690Y-83030214D01*
X188884690Y-83101643D01*
X188551357Y-82720690D02*
X188884690Y-82720690D01*
X188598976Y-82720690D02*
X188575167Y-82696881D01*
X188551357Y-82649262D01*
X188551357Y-82577833D01*
X188575167Y-82530214D01*
X188622786Y-82506405D01*
X188884690Y-82506405D01*
X188551357Y-82268309D02*
X188884690Y-82268309D01*
X188598976Y-82268309D02*
X188575167Y-82244500D01*
X188551357Y-82196881D01*
X188551357Y-82125452D01*
X188575167Y-82077833D01*
X188622786Y-82054024D01*
X188884690Y-82054024D01*
X188860881Y-81625452D02*
X188884690Y-81673071D01*
X188884690Y-81768309D01*
X188860881Y-81815928D01*
X188813262Y-81839738D01*
X188622786Y-81839738D01*
X188575167Y-81815928D01*
X188551357Y-81768309D01*
X188551357Y-81673071D01*
X188575167Y-81625452D01*
X188622786Y-81601643D01*
X188670405Y-81601643D01*
X188718024Y-81839738D01*
X188860881Y-81173072D02*
X188884690Y-81220691D01*
X188884690Y-81315929D01*
X188860881Y-81363548D01*
X188837071Y-81387357D01*
X188789452Y-81411167D01*
X188646595Y-81411167D01*
X188598976Y-81387357D01*
X188575167Y-81363548D01*
X188551357Y-81315929D01*
X188551357Y-81220691D01*
X188575167Y-81173072D01*
X188551357Y-81030215D02*
X188551357Y-80839739D01*
X188384690Y-80958786D02*
X188813262Y-80958786D01*
X188860881Y-80934977D01*
X188884690Y-80887358D01*
X188884690Y-80839739D01*
X188884690Y-80673072D02*
X188551357Y-80673072D01*
X188384690Y-80673072D02*
X188408500Y-80696882D01*
X188432310Y-80673072D01*
X188408500Y-80649263D01*
X188384690Y-80673072D01*
X188432310Y-80673072D01*
X188884690Y-80363549D02*
X188860881Y-80411168D01*
X188837071Y-80434977D01*
X188789452Y-80458787D01*
X188646595Y-80458787D01*
X188598976Y-80434977D01*
X188575167Y-80411168D01*
X188551357Y-80363549D01*
X188551357Y-80292120D01*
X188575167Y-80244501D01*
X188598976Y-80220692D01*
X188646595Y-80196882D01*
X188789452Y-80196882D01*
X188837071Y-80220692D01*
X188860881Y-80244501D01*
X188884690Y-80292120D01*
X188884690Y-80363549D01*
X188551357Y-79982596D02*
X188884690Y-79982596D01*
X188598976Y-79982596D02*
X188575167Y-79958787D01*
X188551357Y-79911168D01*
X188551357Y-79839739D01*
X188575167Y-79792120D01*
X188622786Y-79768311D01*
X188884690Y-79768311D01*
D12*
X146939000Y-87249000D02*
X146939000Y-99949000D01*
X146939000Y-99949000D02*
X144399000Y-99949000D01*
X144399000Y-99949000D02*
X144399000Y-87249000D01*
X147219000Y-84429000D02*
X147219000Y-85979000D01*
X146939000Y-87249000D02*
X144399000Y-87249000D01*
X144119000Y-85979000D02*
X144119000Y-84429000D01*
X144119000Y-84429000D02*
X147219000Y-84429000D01*
X171419000Y-85465000D02*
X183419000Y-85465000D01*
X171419000Y-96965000D02*
X171419000Y-78965000D01*
X183419000Y-78965000D02*
X183419000Y-96965000D01*
X171419000Y-78965000D02*
X183419000Y-78965000D01*
X184912000Y-105664000D02*
X189992000Y-105664000D01*
X182092000Y-105944000D02*
X182092000Y-104394000D01*
X182372000Y-103124000D02*
X184912000Y-103124000D01*
X184912000Y-103124000D02*
X184912000Y-105664000D01*
X189992000Y-105664000D02*
X189992000Y-100584000D01*
X189992000Y-100584000D02*
X184912000Y-100584000D01*
X182092000Y-105944000D02*
X183642000Y-105944000D01*
X182372000Y-100584000D02*
X182372000Y-103124000D01*
X184912000Y-100584000D02*
X182372000Y-100584000D01*
X159443000Y-95319000D02*
X159768000Y-95319000D01*
X159443000Y-88069000D02*
X159768000Y-88069000D01*
X166693000Y-88069000D02*
X166368000Y-88069000D01*
X166693000Y-95319000D02*
X166368000Y-95319000D01*
X159443000Y-95319000D02*
X159443000Y-94994000D01*
X166693000Y-95319000D02*
X166693000Y-94994000D01*
X166693000Y-88069000D02*
X166693000Y-88394000D01*
X159443000Y-88069000D02*
X159443000Y-88394000D01*
X159768000Y-95319000D02*
X159768000Y-96744000D01*
X150749000Y-87249000D02*
X150749000Y-99949000D01*
X150749000Y-99949000D02*
X148209000Y-99949000D01*
X148209000Y-99949000D02*
X148209000Y-87249000D01*
X151029000Y-84429000D02*
X151029000Y-85979000D01*
X150749000Y-87249000D02*
X148209000Y-87249000D01*
X147929000Y-85979000D02*
X147929000Y-84429000D01*
X147929000Y-84429000D02*
X151029000Y-84429000D01*
X151755600Y-81866000D02*
X153755600Y-81866000D01*
X153755600Y-78916000D02*
X151755600Y-78916000D01*
X192151000Y-82931000D02*
X192151000Y-95631000D01*
X192151000Y-95631000D02*
X189611000Y-95631000D01*
X189611000Y-95631000D02*
X189611000Y-82931000D01*
X192431000Y-80111000D02*
X192431000Y-81661000D01*
X192151000Y-82931000D02*
X189611000Y-82931000D01*
X189331000Y-81661000D02*
X189331000Y-80111000D01*
X189331000Y-80111000D02*
X192431000Y-80111000D01*
X156122320Y-86055200D02*
X156122320Y-86756240D01*
X156122320Y-86756240D02*
X155873400Y-86756240D01*
X153323340Y-86756240D02*
X153122680Y-86756240D01*
X153122680Y-86756240D02*
X153122680Y-86055200D01*
X185102500Y-82994500D02*
X185102500Y-88074500D01*
X185102500Y-88074500D02*
X187642500Y-88074500D01*
X187642500Y-88074500D02*
X187642500Y-82994500D01*
X187922500Y-80174500D02*
X187922500Y-81724500D01*
X187642500Y-82994500D02*
X185102500Y-82994500D01*
X184822500Y-81724500D02*
X184822500Y-80174500D01*
X184822500Y-80174500D02*
X187922500Y-80174500D01*
X166165000Y-81169000D02*
X166165000Y-83169000D01*
X169115000Y-83169000D02*
X169115000Y-81169000D01*
X153338000Y-94123000D02*
X153338000Y-96123000D01*
X156288000Y-96123000D02*
X156288000Y-94123000D01*
X168513000Y-98220000D02*
X166513000Y-98220000D01*
X166513000Y-101170000D02*
X168513000Y-101170000D01*
X174158000Y-104402500D02*
X179156000Y-104402500D01*
X174166000Y-104262500D02*
X179148000Y-104262500D01*
X174182000Y-104122500D02*
X176562000Y-104122500D01*
X176752000Y-104122500D02*
X179132000Y-104122500D01*
X174206000Y-103982500D02*
X176167000Y-103982500D01*
X177147000Y-103982500D02*
X179108000Y-103982500D01*
X174239000Y-103842500D02*
X176000000Y-103842500D01*
X177314000Y-103842500D02*
X179075000Y-103842500D01*
X174280000Y-103702500D02*
X175893000Y-103702500D01*
X177421000Y-103702500D02*
X179034000Y-103702500D01*
X174330000Y-103562500D02*
X175822000Y-103562500D01*
X177492000Y-103562500D02*
X178984000Y-103562500D01*
X174391000Y-103422500D02*
X175778000Y-103422500D01*
X177536000Y-103422500D02*
X178923000Y-103422500D01*
X174461000Y-103282500D02*
X175759000Y-103282500D01*
X177555000Y-103282500D02*
X178853000Y-103282500D01*
X174543000Y-103142500D02*
X175761000Y-103142500D01*
X177553000Y-103142500D02*
X178771000Y-103142500D01*
X174638000Y-103002500D02*
X175786000Y-103002500D01*
X177528000Y-103002500D02*
X178676000Y-103002500D01*
X174749000Y-102862500D02*
X175834000Y-102862500D01*
X177480000Y-102862500D02*
X178565000Y-102862500D01*
X174877000Y-102722500D02*
X175912000Y-102722500D01*
X177402000Y-102722500D02*
X178437000Y-102722500D01*
X175026000Y-102582500D02*
X176029000Y-102582500D01*
X177285000Y-102582500D02*
X178288000Y-102582500D01*
X175205000Y-102442500D02*
X176217000Y-102442500D01*
X177097000Y-102442500D02*
X178109000Y-102442500D01*
X175424000Y-102302500D02*
X177890000Y-102302500D01*
X175713000Y-102162500D02*
X177601000Y-102162500D01*
X176185000Y-102022500D02*
X177129000Y-102022500D01*
X177557000Y-103227500D02*
G75*
G03X177557000Y-103227500I-900000J0D01*
G01*
X179194500Y-104477500D02*
G75*
G03X179194500Y-104477500I-2537500J0D01*
G01*
X149945200Y-106079000D02*
X153545200Y-106079000D01*
X149945200Y-103979000D02*
X153545200Y-103979000D01*
X151995200Y-104729000D02*
X151995200Y-105329000D01*
X151995200Y-105329000D02*
X151695200Y-105029000D01*
X151695200Y-105029000D02*
X151895200Y-104829000D01*
X151895200Y-104829000D02*
X151895200Y-105079000D01*
X151895200Y-105079000D02*
X151845200Y-105029000D01*
X151595200Y-104529000D02*
X151595200Y-105529000D01*
X152095200Y-105029000D02*
X152595200Y-105029000D01*
X151595200Y-105029000D02*
X152095200Y-104529000D01*
X152095200Y-104529000D02*
X152095200Y-105529000D01*
X152095200Y-105529000D02*
X151595200Y-105029000D01*
X161939500Y-83169000D02*
X161939500Y-81169000D01*
X158989500Y-81169000D02*
X158989500Y-83169000D01*
X159147000Y-101170000D02*
X161147000Y-101170000D01*
X161147000Y-98220000D02*
X159147000Y-98220000D01*
X157775400Y-103528600D02*
X159775400Y-103528600D01*
X159775400Y-106478600D02*
X157775400Y-106478600D01*
X174149190Y-83319881D02*
X174149190Y-82319881D01*
X174720619Y-83319881D01*
X174720619Y-82319881D01*
X175768238Y-83319881D02*
X175434904Y-82843690D01*
X175196809Y-83319881D02*
X175196809Y-82319881D01*
X175577762Y-82319881D01*
X175673000Y-82367500D01*
X175720619Y-82415119D01*
X175768238Y-82510357D01*
X175768238Y-82653214D01*
X175720619Y-82748452D01*
X175673000Y-82796071D01*
X175577762Y-82843690D01*
X175196809Y-82843690D01*
X176530143Y-82796071D02*
X176196809Y-82796071D01*
X176196809Y-83319881D02*
X176196809Y-82319881D01*
X176673000Y-82319881D01*
X177006333Y-82415119D02*
X177053952Y-82367500D01*
X177149190Y-82319881D01*
X177387286Y-82319881D01*
X177482524Y-82367500D01*
X177530143Y-82415119D01*
X177577762Y-82510357D01*
X177577762Y-82605595D01*
X177530143Y-82748452D01*
X176958714Y-83319881D01*
X177577762Y-83319881D01*
X178434905Y-82653214D02*
X178434905Y-83319881D01*
X178196809Y-82272262D02*
X177958714Y-82986548D01*
X178577762Y-82986548D01*
X179434905Y-83319881D02*
X178958714Y-83319881D01*
X178958714Y-82319881D01*
X179958714Y-82319881D02*
X180053953Y-82319881D01*
X180149191Y-82367500D01*
X180196810Y-82415119D01*
X180244429Y-82510357D01*
X180292048Y-82700833D01*
X180292048Y-82938929D01*
X180244429Y-83129405D01*
X180196810Y-83224643D01*
X180149191Y-83272262D01*
X180053953Y-83319881D01*
X179958714Y-83319881D01*
X179863476Y-83272262D01*
X179815857Y-83224643D01*
X179768238Y-83129405D01*
X179720619Y-82938929D01*
X179720619Y-82700833D01*
X179768238Y-82510357D01*
X179815857Y-82415119D01*
X179863476Y-82367500D01*
X179958714Y-82319881D01*
X181244429Y-83319881D02*
X180673000Y-83319881D01*
X180958714Y-83319881D02*
X180958714Y-82319881D01*
X180863476Y-82462738D01*
X180768238Y-82557976D01*
X180673000Y-82605595D01*
X182150262Y-107100667D02*
X182626453Y-107100667D01*
X182055024Y-107386381D02*
X182388357Y-106386381D01*
X182721691Y-107386381D01*
X182912167Y-106386381D02*
X183245500Y-107386381D01*
X183578834Y-106386381D01*
X184483596Y-107386381D02*
X184150262Y-106910190D01*
X183912167Y-107386381D02*
X183912167Y-106386381D01*
X184293120Y-106386381D01*
X184388358Y-106434000D01*
X184435977Y-106481619D01*
X184483596Y-106576857D01*
X184483596Y-106719714D01*
X184435977Y-106814952D01*
X184388358Y-106862571D01*
X184293120Y-106910190D01*
X183912167Y-106910190D01*
X184912167Y-107005429D02*
X185674072Y-107005429D01*
X186150262Y-107386381D02*
X186150262Y-106386381D01*
X186578833Y-107338762D02*
X186721690Y-107386381D01*
X186959786Y-107386381D01*
X187055024Y-107338762D01*
X187102643Y-107291143D01*
X187150262Y-107195905D01*
X187150262Y-107100667D01*
X187102643Y-107005429D01*
X187055024Y-106957810D01*
X186959786Y-106910190D01*
X186769309Y-106862571D01*
X186674071Y-106814952D01*
X186626452Y-106767333D01*
X186578833Y-106672095D01*
X186578833Y-106576857D01*
X186626452Y-106481619D01*
X186674071Y-106434000D01*
X186769309Y-106386381D01*
X187007405Y-106386381D01*
X187150262Y-106434000D01*
X187578833Y-107386381D02*
X187578833Y-106386381D01*
X187959786Y-106386381D01*
X188055024Y-106434000D01*
X188102643Y-106481619D01*
X188150262Y-106576857D01*
X188150262Y-106719714D01*
X188102643Y-106814952D01*
X188055024Y-106862571D01*
X187959786Y-106910190D01*
X187578833Y-106910190D01*
X188578833Y-107005429D02*
X189340738Y-107005429D01*
X190245500Y-106386381D02*
X190055023Y-106386381D01*
X189959785Y-106434000D01*
X189912166Y-106481619D01*
X189816928Y-106624476D01*
X189769309Y-106814952D01*
X189769309Y-107195905D01*
X189816928Y-107291143D01*
X189864547Y-107338762D01*
X189959785Y-107386381D01*
X190150262Y-107386381D01*
X190245500Y-107338762D01*
X190293119Y-107291143D01*
X190340738Y-107195905D01*
X190340738Y-106957810D01*
X190293119Y-106862571D01*
X190245500Y-106814952D01*
X190150262Y-106767333D01*
X189959785Y-106767333D01*
X189864547Y-106814952D01*
X189816928Y-106862571D01*
X189769309Y-106957810D01*
X169284667Y-97241619D02*
X169284667Y-96765428D01*
X169570381Y-97336857D02*
X168570381Y-97003524D01*
X169570381Y-96670190D01*
X168570381Y-96479714D02*
X168570381Y-95908285D01*
X169570381Y-96194000D02*
X168570381Y-96194000D01*
X169570381Y-95574952D02*
X168570381Y-95574952D01*
X169284667Y-95241618D01*
X168570381Y-94908285D01*
X169570381Y-94908285D01*
X169046571Y-94432095D02*
X169046571Y-94098761D01*
X169570381Y-93955904D02*
X169570381Y-94432095D01*
X168570381Y-94432095D01*
X168570381Y-93955904D01*
X168618000Y-93003523D02*
X168570381Y-93098761D01*
X168570381Y-93241618D01*
X168618000Y-93384476D01*
X168713238Y-93479714D01*
X168808476Y-93527333D01*
X168998952Y-93574952D01*
X169141810Y-93574952D01*
X169332286Y-93527333D01*
X169427524Y-93479714D01*
X169522762Y-93384476D01*
X169570381Y-93241618D01*
X169570381Y-93146380D01*
X169522762Y-93003523D01*
X169475143Y-92955904D01*
X169141810Y-92955904D01*
X169141810Y-93146380D01*
X169284667Y-92574952D02*
X169284667Y-92098761D01*
X169570381Y-92670190D02*
X168570381Y-92336857D01*
X169570381Y-92003523D01*
X168570381Y-91765428D02*
X168570381Y-91146380D01*
X168951333Y-91479714D01*
X168951333Y-91336856D01*
X168998952Y-91241618D01*
X169046571Y-91193999D01*
X169141810Y-91146380D01*
X169379905Y-91146380D01*
X169475143Y-91193999D01*
X169522762Y-91241618D01*
X169570381Y-91336856D01*
X169570381Y-91622571D01*
X169522762Y-91717809D01*
X169475143Y-91765428D01*
X168665619Y-90765428D02*
X168618000Y-90717809D01*
X168570381Y-90622571D01*
X168570381Y-90384475D01*
X168618000Y-90289237D01*
X168665619Y-90241618D01*
X168760857Y-90193999D01*
X168856095Y-90193999D01*
X168998952Y-90241618D01*
X169570381Y-90813047D01*
X169570381Y-90193999D01*
X168998952Y-89622571D02*
X168951333Y-89717809D01*
X168903714Y-89765428D01*
X168808476Y-89813047D01*
X168760857Y-89813047D01*
X168665619Y-89765428D01*
X168618000Y-89717809D01*
X168570381Y-89622571D01*
X168570381Y-89432094D01*
X168618000Y-89336856D01*
X168665619Y-89289237D01*
X168760857Y-89241618D01*
X168808476Y-89241618D01*
X168903714Y-89289237D01*
X168951333Y-89336856D01*
X168998952Y-89432094D01*
X168998952Y-89622571D01*
X169046571Y-89717809D01*
X169094190Y-89765428D01*
X169189429Y-89813047D01*
X169379905Y-89813047D01*
X169475143Y-89765428D01*
X169522762Y-89717809D01*
X169570381Y-89622571D01*
X169570381Y-89432094D01*
X169522762Y-89336856D01*
X169475143Y-89289237D01*
X169379905Y-89241618D01*
X169189429Y-89241618D01*
X169094190Y-89289237D01*
X169046571Y-89336856D01*
X168998952Y-89432094D01*
X169570381Y-88813047D02*
X168570381Y-88813047D01*
X168570381Y-88432094D01*
X168618000Y-88336856D01*
X168665619Y-88289237D01*
X168760857Y-88241618D01*
X168903714Y-88241618D01*
X168998952Y-88289237D01*
X169046571Y-88336856D01*
X169094190Y-88432094D01*
X169094190Y-88813047D01*
X169189429Y-87813047D02*
X169189429Y-87051142D01*
X169284667Y-86622571D02*
X169284667Y-86146380D01*
X169570381Y-86717809D02*
X168570381Y-86384476D01*
X169570381Y-86051142D01*
X151258781Y-83256381D02*
X150687352Y-83256381D01*
X150973066Y-83256381D02*
X150973066Y-82256381D01*
X150877828Y-82399238D01*
X150782590Y-82494476D01*
X150687352Y-82542095D01*
X151877828Y-82256381D02*
X151973067Y-82256381D01*
X152068305Y-82304000D01*
X152115924Y-82351619D01*
X152163543Y-82446857D01*
X152211162Y-82637333D01*
X152211162Y-82875429D01*
X152163543Y-83065905D01*
X152115924Y-83161143D01*
X152068305Y-83208762D01*
X151973067Y-83256381D01*
X151877828Y-83256381D01*
X151782590Y-83208762D01*
X151734971Y-83161143D01*
X151687352Y-83065905D01*
X151639733Y-82875429D01*
X151639733Y-82637333D01*
X151687352Y-82446857D01*
X151734971Y-82351619D01*
X151782590Y-82304000D01*
X151877828Y-82256381D01*
X152830209Y-82256381D02*
X152925448Y-82256381D01*
X153020686Y-82304000D01*
X153068305Y-82351619D01*
X153115924Y-82446857D01*
X153163543Y-82637333D01*
X153163543Y-82875429D01*
X153115924Y-83065905D01*
X153068305Y-83161143D01*
X153020686Y-83208762D01*
X152925448Y-83256381D01*
X152830209Y-83256381D01*
X152734971Y-83208762D01*
X152687352Y-83161143D01*
X152639733Y-83065905D01*
X152592114Y-82875429D01*
X152592114Y-82637333D01*
X152639733Y-82446857D01*
X152687352Y-82351619D01*
X152734971Y-82304000D01*
X152830209Y-82256381D01*
X153592114Y-82589714D02*
X153592114Y-83256381D01*
X153592114Y-82684952D02*
X153639733Y-82637333D01*
X153734971Y-82589714D01*
X153877829Y-82589714D01*
X153973067Y-82637333D01*
X154020686Y-82732571D01*
X154020686Y-83256381D01*
X154830210Y-82732571D02*
X154496876Y-82732571D01*
X154496876Y-83256381D02*
X154496876Y-82256381D01*
X154973067Y-82256381D01*
D11*
X157041833Y-86435809D02*
X157041833Y-86054857D01*
X157270405Y-86512000D02*
X156470405Y-86245333D01*
X157270405Y-85978666D01*
X156470405Y-85826286D02*
X156470405Y-85369143D01*
X157270405Y-85597714D02*
X156470405Y-85597714D01*
X157232310Y-85140571D02*
X157270405Y-85026285D01*
X157270405Y-84835809D01*
X157232310Y-84759619D01*
X157194214Y-84721523D01*
X157118024Y-84683428D01*
X157041833Y-84683428D01*
X156965643Y-84721523D01*
X156927548Y-84759619D01*
X156889452Y-84835809D01*
X156851357Y-84988190D01*
X156813262Y-85064381D01*
X156775167Y-85102476D01*
X156698976Y-85140571D01*
X156622786Y-85140571D01*
X156546595Y-85102476D01*
X156508500Y-85064381D01*
X156470405Y-84988190D01*
X156470405Y-84797714D01*
X156508500Y-84683428D01*
X157270405Y-84340571D02*
X156470405Y-84340571D01*
X156851357Y-84340571D02*
X156851357Y-83883428D01*
X157270405Y-83883428D02*
X156470405Y-83883428D01*
X157041833Y-83540571D02*
X157041833Y-83159619D01*
X157270405Y-83616762D02*
X156470405Y-83350095D01*
X157270405Y-83083428D01*
X156546595Y-82854857D02*
X156508500Y-82816762D01*
X156470405Y-82740571D01*
X156470405Y-82550095D01*
X156508500Y-82473905D01*
X156546595Y-82435809D01*
X156622786Y-82397714D01*
X156698976Y-82397714D01*
X156813262Y-82435809D01*
X157270405Y-82892952D01*
X157270405Y-82397714D01*
X156470405Y-81902476D02*
X156470405Y-81826285D01*
X156508500Y-81750095D01*
X156546595Y-81712000D01*
X156622786Y-81673904D01*
X156775167Y-81635809D01*
X156965643Y-81635809D01*
X157118024Y-81673904D01*
X157194214Y-81712000D01*
X157232310Y-81750095D01*
X157270405Y-81826285D01*
X157270405Y-81902476D01*
X157232310Y-81978666D01*
X157194214Y-82016762D01*
X157118024Y-82054857D01*
X156965643Y-82092952D01*
X156775167Y-82092952D01*
X156622786Y-82054857D01*
X156546595Y-82016762D01*
X156508500Y-81978666D01*
X156470405Y-81902476D01*
X156737071Y-80950095D02*
X157270405Y-80950095D01*
X156432310Y-81140571D02*
X157003738Y-81331047D01*
X157003738Y-80835809D01*
X157041833Y-80569142D02*
X157041833Y-80188190D01*
X157270405Y-80645333D02*
X156470405Y-80378666D01*
X157270405Y-80111999D01*
X184114286Y-88427190D02*
X184138095Y-88355761D01*
X184161905Y-88331952D01*
X184209524Y-88308142D01*
X184280952Y-88308142D01*
X184328571Y-88331952D01*
X184352381Y-88355761D01*
X184376190Y-88403380D01*
X184376190Y-88593856D01*
X183876190Y-88593856D01*
X183876190Y-88427190D01*
X183900000Y-88379571D01*
X183923810Y-88355761D01*
X183971429Y-88331952D01*
X184019048Y-88331952D01*
X184066667Y-88355761D01*
X184090476Y-88379571D01*
X184114286Y-88427190D01*
X184114286Y-88593856D01*
X184376190Y-88022428D02*
X184352381Y-88070047D01*
X184328571Y-88093856D01*
X184280952Y-88117666D01*
X184138095Y-88117666D01*
X184090476Y-88093856D01*
X184066667Y-88070047D01*
X184042857Y-88022428D01*
X184042857Y-87950999D01*
X184066667Y-87903380D01*
X184090476Y-87879571D01*
X184138095Y-87855761D01*
X184280952Y-87855761D01*
X184328571Y-87879571D01*
X184352381Y-87903380D01*
X184376190Y-87950999D01*
X184376190Y-88022428D01*
X184376190Y-87570047D02*
X184352381Y-87617666D01*
X184328571Y-87641475D01*
X184280952Y-87665285D01*
X184138095Y-87665285D01*
X184090476Y-87641475D01*
X184066667Y-87617666D01*
X184042857Y-87570047D01*
X184042857Y-87498618D01*
X184066667Y-87450999D01*
X184090476Y-87427190D01*
X184138095Y-87403380D01*
X184280952Y-87403380D01*
X184328571Y-87427190D01*
X184352381Y-87450999D01*
X184376190Y-87498618D01*
X184376190Y-87570047D01*
X184352381Y-87212904D02*
X184376190Y-87165285D01*
X184376190Y-87070047D01*
X184352381Y-87022428D01*
X184304762Y-86998618D01*
X184280952Y-86998618D01*
X184233333Y-87022428D01*
X184209524Y-87070047D01*
X184209524Y-87141475D01*
X184185714Y-87189094D01*
X184138095Y-87212904D01*
X184114286Y-87212904D01*
X184066667Y-87189094D01*
X184042857Y-87141475D01*
X184042857Y-87070047D01*
X184066667Y-87022428D01*
X184042857Y-86855761D02*
X184042857Y-86665285D01*
X183876190Y-86784332D02*
X184304762Y-86784332D01*
X184352381Y-86760523D01*
X184376190Y-86712904D01*
X184376190Y-86665285D01*
X184328571Y-85831952D02*
X184352381Y-85855762D01*
X184376190Y-85927190D01*
X184376190Y-85974809D01*
X184352381Y-86046238D01*
X184304762Y-86093857D01*
X184257143Y-86117666D01*
X184161905Y-86141476D01*
X184090476Y-86141476D01*
X183995238Y-86117666D01*
X183947619Y-86093857D01*
X183900000Y-86046238D01*
X183876190Y-85974809D01*
X183876190Y-85927190D01*
X183900000Y-85855762D01*
X183923810Y-85831952D01*
X184376190Y-85546238D02*
X184352381Y-85593857D01*
X184328571Y-85617666D01*
X184280952Y-85641476D01*
X184138095Y-85641476D01*
X184090476Y-85617666D01*
X184066667Y-85593857D01*
X184042857Y-85546238D01*
X184042857Y-85474809D01*
X184066667Y-85427190D01*
X184090476Y-85403381D01*
X184138095Y-85379571D01*
X184280952Y-85379571D01*
X184328571Y-85403381D01*
X184352381Y-85427190D01*
X184376190Y-85474809D01*
X184376190Y-85546238D01*
X184042857Y-85165285D02*
X184376190Y-85165285D01*
X184090476Y-85165285D02*
X184066667Y-85141476D01*
X184042857Y-85093857D01*
X184042857Y-85022428D01*
X184066667Y-84974809D01*
X184114286Y-84951000D01*
X184376190Y-84951000D01*
X184042857Y-84760523D02*
X184376190Y-84641476D01*
X184042857Y-84522428D01*
X184352381Y-84141476D02*
X184376190Y-84189095D01*
X184376190Y-84284333D01*
X184352381Y-84331952D01*
X184304762Y-84355762D01*
X184114286Y-84355762D01*
X184066667Y-84331952D01*
X184042857Y-84284333D01*
X184042857Y-84189095D01*
X184066667Y-84141476D01*
X184114286Y-84117667D01*
X184161905Y-84117667D01*
X184209524Y-84355762D01*
X184376190Y-83903381D02*
X184042857Y-83903381D01*
X184138095Y-83903381D02*
X184090476Y-83879572D01*
X184066667Y-83855762D01*
X184042857Y-83808143D01*
X184042857Y-83760524D01*
X184042857Y-83665286D02*
X184042857Y-83474810D01*
X183876190Y-83593857D02*
X184304762Y-83593857D01*
X184352381Y-83570048D01*
X184376190Y-83522429D01*
X184376190Y-83474810D01*
X184352381Y-83117667D02*
X184376190Y-83165286D01*
X184376190Y-83260524D01*
X184352381Y-83308143D01*
X184304762Y-83331953D01*
X184114286Y-83331953D01*
X184066667Y-83308143D01*
X184042857Y-83260524D01*
X184042857Y-83165286D01*
X184066667Y-83117667D01*
X184114286Y-83093858D01*
X184161905Y-83093858D01*
X184209524Y-83331953D01*
X184376190Y-82879572D02*
X184042857Y-82879572D01*
X184138095Y-82879572D02*
X184090476Y-82855763D01*
X184066667Y-82831953D01*
X184042857Y-82784334D01*
X184042857Y-82736715D01*
X184376190Y-82189096D02*
X183876190Y-82189096D01*
X184233333Y-82022430D01*
X183876190Y-81855763D01*
X184376190Y-81855763D01*
X184376190Y-81546239D02*
X184352381Y-81593858D01*
X184328571Y-81617667D01*
X184280952Y-81641477D01*
X184138095Y-81641477D01*
X184090476Y-81617667D01*
X184066667Y-81593858D01*
X184042857Y-81546239D01*
X184042857Y-81474810D01*
X184066667Y-81427191D01*
X184090476Y-81403382D01*
X184138095Y-81379572D01*
X184280952Y-81379572D01*
X184328571Y-81403382D01*
X184352381Y-81427191D01*
X184376190Y-81474810D01*
X184376190Y-81546239D01*
X184376190Y-80951001D02*
X183876190Y-80951001D01*
X184352381Y-80951001D02*
X184376190Y-80998620D01*
X184376190Y-81093858D01*
X184352381Y-81141477D01*
X184328571Y-81165286D01*
X184280952Y-81189096D01*
X184138095Y-81189096D01*
X184090476Y-81165286D01*
X184066667Y-81141477D01*
X184042857Y-81093858D01*
X184042857Y-80998620D01*
X184066667Y-80951001D01*
X184042857Y-80498620D02*
X184376190Y-80498620D01*
X184042857Y-80712905D02*
X184304762Y-80712905D01*
X184352381Y-80689096D01*
X184376190Y-80641477D01*
X184376190Y-80570048D01*
X184352381Y-80522429D01*
X184328571Y-80498620D01*
X184376190Y-80189096D02*
X184352381Y-80236715D01*
X184304762Y-80260524D01*
X183876190Y-80260524D01*
X184352381Y-79808143D02*
X184376190Y-79855762D01*
X184376190Y-79951000D01*
X184352381Y-79998619D01*
X184304762Y-80022429D01*
X184114286Y-80022429D01*
X184066667Y-79998619D01*
X184042857Y-79951000D01*
X184042857Y-79855762D01*
X184066667Y-79808143D01*
X184114286Y-79784334D01*
X184161905Y-79784334D01*
X184209524Y-80022429D01*
D12*
X165806381Y-81684619D02*
X165806381Y-82256048D01*
X165806381Y-81970334D02*
X164806381Y-81970334D01*
X164949238Y-82065572D01*
X165044476Y-82160810D01*
X165092095Y-82256048D01*
X164806381Y-81065572D02*
X164806381Y-80970333D01*
X164854000Y-80875095D01*
X164901619Y-80827476D01*
X164996857Y-80779857D01*
X165187333Y-80732238D01*
X165425429Y-80732238D01*
X165615905Y-80779857D01*
X165711143Y-80827476D01*
X165758762Y-80875095D01*
X165806381Y-80970333D01*
X165806381Y-81065572D01*
X165758762Y-81160810D01*
X165711143Y-81208429D01*
X165615905Y-81256048D01*
X165425429Y-81303667D01*
X165187333Y-81303667D01*
X164996857Y-81256048D01*
X164901619Y-81208429D01*
X164854000Y-81160810D01*
X164806381Y-81065572D01*
X164806381Y-80113191D02*
X164806381Y-80017952D01*
X164854000Y-79922714D01*
X164901619Y-79875095D01*
X164996857Y-79827476D01*
X165187333Y-79779857D01*
X165425429Y-79779857D01*
X165615905Y-79827476D01*
X165711143Y-79875095D01*
X165758762Y-79922714D01*
X165806381Y-80017952D01*
X165806381Y-80113191D01*
X165758762Y-80208429D01*
X165711143Y-80256048D01*
X165615905Y-80303667D01*
X165425429Y-80351286D01*
X165187333Y-80351286D01*
X164996857Y-80303667D01*
X164901619Y-80256048D01*
X164854000Y-80208429D01*
X164806381Y-80113191D01*
X165139714Y-79351286D02*
X165806381Y-79351286D01*
X165234952Y-79351286D02*
X165187333Y-79303667D01*
X165139714Y-79208429D01*
X165139714Y-79065571D01*
X165187333Y-78970333D01*
X165282571Y-78922714D01*
X165806381Y-78922714D01*
X165282571Y-78113190D02*
X165282571Y-78446524D01*
X165806381Y-78446524D02*
X164806381Y-78446524D01*
X164806381Y-77970333D01*
X152852381Y-96607119D02*
X152852381Y-97178548D01*
X152852381Y-96892834D02*
X151852381Y-96892834D01*
X151995238Y-96988072D01*
X152090476Y-97083310D01*
X152138095Y-97178548D01*
X151852381Y-95988072D02*
X151852381Y-95892833D01*
X151900000Y-95797595D01*
X151947619Y-95749976D01*
X152042857Y-95702357D01*
X152233333Y-95654738D01*
X152471429Y-95654738D01*
X152661905Y-95702357D01*
X152757143Y-95749976D01*
X152804762Y-95797595D01*
X152852381Y-95892833D01*
X152852381Y-95988072D01*
X152804762Y-96083310D01*
X152757143Y-96130929D01*
X152661905Y-96178548D01*
X152471429Y-96226167D01*
X152233333Y-96226167D01*
X152042857Y-96178548D01*
X151947619Y-96130929D01*
X151900000Y-96083310D01*
X151852381Y-95988072D01*
X151852381Y-95035691D02*
X151852381Y-94940452D01*
X151900000Y-94845214D01*
X151947619Y-94797595D01*
X152042857Y-94749976D01*
X152233333Y-94702357D01*
X152471429Y-94702357D01*
X152661905Y-94749976D01*
X152757143Y-94797595D01*
X152804762Y-94845214D01*
X152852381Y-94940452D01*
X152852381Y-95035691D01*
X152804762Y-95130929D01*
X152757143Y-95178548D01*
X152661905Y-95226167D01*
X152471429Y-95273786D01*
X152233333Y-95273786D01*
X152042857Y-95226167D01*
X151947619Y-95178548D01*
X151900000Y-95130929D01*
X151852381Y-95035691D01*
X152185714Y-94273786D02*
X152852381Y-94273786D01*
X152280952Y-94273786D02*
X152233333Y-94226167D01*
X152185714Y-94130929D01*
X152185714Y-93988071D01*
X152233333Y-93892833D01*
X152328571Y-93845214D01*
X152852381Y-93845214D01*
X152328571Y-93035690D02*
X152328571Y-93369024D01*
X152852381Y-93369024D02*
X151852381Y-93369024D01*
X151852381Y-92892833D01*
X166282881Y-102560381D02*
X165711452Y-102560381D01*
X165997166Y-102560381D02*
X165997166Y-101560381D01*
X165901928Y-101703238D01*
X165806690Y-101798476D01*
X165711452Y-101846095D01*
X166901928Y-101560381D02*
X166997167Y-101560381D01*
X167092405Y-101608000D01*
X167140024Y-101655619D01*
X167187643Y-101750857D01*
X167235262Y-101941333D01*
X167235262Y-102179429D01*
X167187643Y-102369905D01*
X167140024Y-102465143D01*
X167092405Y-102512762D01*
X166997167Y-102560381D01*
X166901928Y-102560381D01*
X166806690Y-102512762D01*
X166759071Y-102465143D01*
X166711452Y-102369905D01*
X166663833Y-102179429D01*
X166663833Y-101941333D01*
X166711452Y-101750857D01*
X166759071Y-101655619D01*
X166806690Y-101608000D01*
X166901928Y-101560381D01*
X167854309Y-101560381D02*
X167949548Y-101560381D01*
X168044786Y-101608000D01*
X168092405Y-101655619D01*
X168140024Y-101750857D01*
X168187643Y-101941333D01*
X168187643Y-102179429D01*
X168140024Y-102369905D01*
X168092405Y-102465143D01*
X168044786Y-102512762D01*
X167949548Y-102560381D01*
X167854309Y-102560381D01*
X167759071Y-102512762D01*
X167711452Y-102465143D01*
X167663833Y-102369905D01*
X167616214Y-102179429D01*
X167616214Y-101941333D01*
X167663833Y-101750857D01*
X167711452Y-101655619D01*
X167759071Y-101608000D01*
X167854309Y-101560381D01*
X168616214Y-101893714D02*
X168616214Y-102560381D01*
X168616214Y-101988952D02*
X168663833Y-101941333D01*
X168759071Y-101893714D01*
X168901929Y-101893714D01*
X168997167Y-101941333D01*
X169044786Y-102036571D01*
X169044786Y-102560381D01*
X169854310Y-102036571D02*
X169520976Y-102036571D01*
X169520976Y-102560381D02*
X169520976Y-101560381D01*
X169997167Y-101560381D01*
X175617334Y-100623714D02*
X175617334Y-101290381D01*
X175379238Y-100242762D02*
X175141143Y-100957048D01*
X175760191Y-100957048D01*
X176045905Y-100290381D02*
X176712572Y-100290381D01*
X176284000Y-101290381D01*
X177522096Y-100623714D02*
X177522096Y-101290381D01*
X177093524Y-100623714D02*
X177093524Y-101147524D01*
X177141143Y-101242762D01*
X177236381Y-101290381D01*
X177379239Y-101290381D01*
X177474477Y-101242762D01*
X177522096Y-101195143D01*
X178331620Y-100766571D02*
X177998286Y-100766571D01*
X177998286Y-101290381D02*
X177998286Y-100290381D01*
X178474477Y-100290381D01*
X151388843Y-103322381D02*
X150912652Y-103322381D01*
X150912652Y-102322381D01*
X151722176Y-102798571D02*
X152055510Y-102798571D01*
X152198367Y-103322381D02*
X151722176Y-103322381D01*
X151722176Y-102322381D01*
X152198367Y-102322381D01*
X152626938Y-103322381D02*
X152626938Y-102322381D01*
X152865033Y-102322381D01*
X153007891Y-102370000D01*
X153103129Y-102465238D01*
X153150748Y-102560476D01*
X153198367Y-102750952D01*
X153198367Y-102893810D01*
X153150748Y-103084286D01*
X153103129Y-103179524D01*
X153007891Y-103274762D01*
X152865033Y-103322381D01*
X152626938Y-103322381D01*
X163393381Y-81684619D02*
X163393381Y-82256048D01*
X163393381Y-81970334D02*
X162393381Y-81970334D01*
X162536238Y-82065572D01*
X162631476Y-82160810D01*
X162679095Y-82256048D01*
X162393381Y-81065572D02*
X162393381Y-80970333D01*
X162441000Y-80875095D01*
X162488619Y-80827476D01*
X162583857Y-80779857D01*
X162774333Y-80732238D01*
X163012429Y-80732238D01*
X163202905Y-80779857D01*
X163298143Y-80827476D01*
X163345762Y-80875095D01*
X163393381Y-80970333D01*
X163393381Y-81065572D01*
X163345762Y-81160810D01*
X163298143Y-81208429D01*
X163202905Y-81256048D01*
X163012429Y-81303667D01*
X162774333Y-81303667D01*
X162583857Y-81256048D01*
X162488619Y-81208429D01*
X162441000Y-81160810D01*
X162393381Y-81065572D01*
X162393381Y-80113191D02*
X162393381Y-80017952D01*
X162441000Y-79922714D01*
X162488619Y-79875095D01*
X162583857Y-79827476D01*
X162774333Y-79779857D01*
X163012429Y-79779857D01*
X163202905Y-79827476D01*
X163298143Y-79875095D01*
X163345762Y-79922714D01*
X163393381Y-80017952D01*
X163393381Y-80113191D01*
X163345762Y-80208429D01*
X163298143Y-80256048D01*
X163202905Y-80303667D01*
X163012429Y-80351286D01*
X162774333Y-80351286D01*
X162583857Y-80303667D01*
X162488619Y-80256048D01*
X162441000Y-80208429D01*
X162393381Y-80113191D01*
X162726714Y-79351286D02*
X163393381Y-79351286D01*
X162821952Y-79351286D02*
X162774333Y-79303667D01*
X162726714Y-79208429D01*
X162726714Y-79065571D01*
X162774333Y-78970333D01*
X162869571Y-78922714D01*
X163393381Y-78922714D01*
X162869571Y-78113190D02*
X162869571Y-78446524D01*
X163393381Y-78446524D02*
X162393381Y-78446524D01*
X162393381Y-77970333D01*
X159437581Y-102636581D02*
X158866152Y-102636581D01*
X159151866Y-102636581D02*
X159151866Y-101636581D01*
X159056628Y-101779438D01*
X158961390Y-101874676D01*
X158866152Y-101922295D01*
X160056628Y-101636581D02*
X160151867Y-101636581D01*
X160247105Y-101684200D01*
X160294724Y-101731819D01*
X160342343Y-101827057D01*
X160389962Y-102017533D01*
X160389962Y-102255629D01*
X160342343Y-102446105D01*
X160294724Y-102541343D01*
X160247105Y-102588962D01*
X160151867Y-102636581D01*
X160056628Y-102636581D01*
X159961390Y-102588962D01*
X159913771Y-102541343D01*
X159866152Y-102446105D01*
X159818533Y-102255629D01*
X159818533Y-102017533D01*
X159866152Y-101827057D01*
X159913771Y-101731819D01*
X159961390Y-101684200D01*
X160056628Y-101636581D01*
X161009009Y-101636581D02*
X161104248Y-101636581D01*
X161199486Y-101684200D01*
X161247105Y-101731819D01*
X161294724Y-101827057D01*
X161342343Y-102017533D01*
X161342343Y-102255629D01*
X161294724Y-102446105D01*
X161247105Y-102541343D01*
X161199486Y-102588962D01*
X161104248Y-102636581D01*
X161009009Y-102636581D01*
X160913771Y-102588962D01*
X160866152Y-102541343D01*
X160818533Y-102446105D01*
X160770914Y-102255629D01*
X160770914Y-102017533D01*
X160818533Y-101827057D01*
X160866152Y-101731819D01*
X160913771Y-101684200D01*
X161009009Y-101636581D01*
X161770914Y-101969914D02*
X161770914Y-102636581D01*
X161770914Y-102065152D02*
X161818533Y-102017533D01*
X161913771Y-101969914D01*
X162056629Y-101969914D01*
X162151867Y-102017533D01*
X162199486Y-102112771D01*
X162199486Y-102636581D01*
X163009010Y-102112771D02*
X162675676Y-102112771D01*
X162675676Y-102636581D02*
X162675676Y-101636581D01*
X163151867Y-101636581D01*
X155556105Y-102087419D02*
X155603724Y-102039800D01*
X155698962Y-101992181D01*
X155937058Y-101992181D01*
X156032296Y-102039800D01*
X156079915Y-102087419D01*
X156127534Y-102182657D01*
X156127534Y-102277895D01*
X156079915Y-102420752D01*
X155508486Y-102992181D01*
X156127534Y-102992181D01*
X156508486Y-102087419D02*
X156556105Y-102039800D01*
X156651343Y-101992181D01*
X156889439Y-101992181D01*
X156984677Y-102039800D01*
X157032296Y-102087419D01*
X157079915Y-102182657D01*
X157079915Y-102277895D01*
X157032296Y-102420752D01*
X156460867Y-102992181D01*
X157079915Y-102992181D01*
X157698962Y-101992181D02*
X157794201Y-101992181D01*
X157889439Y-102039800D01*
X157937058Y-102087419D01*
X157984677Y-102182657D01*
X158032296Y-102373133D01*
X158032296Y-102611229D01*
X157984677Y-102801705D01*
X157937058Y-102896943D01*
X157889439Y-102944562D01*
X157794201Y-102992181D01*
X157698962Y-102992181D01*
X157603724Y-102944562D01*
X157556105Y-102896943D01*
X157508486Y-102801705D01*
X157460867Y-102611229D01*
X157460867Y-102373133D01*
X157508486Y-102182657D01*
X157556105Y-102087419D01*
X157603724Y-102039800D01*
X157698962Y-101992181D01*
M02*
