G04 #@! TF.FileFunction,Copper,L1,Top,Signal*
%FSLAX46Y46*%
G04 Gerber Fmt 4.6, Leading zero omitted, Abs format (unit mm)*
G04 Created by KiCad (PCBNEW 4.0.2-stable) date 02.07.2016 15:57:05*
%MOMM*%
G01*
G04 APERTURE LIST*
%ADD10C,0.100000*%
%ADD11R,2.032000X1.727200*%
%ADD12O,2.032000X1.727200*%
%ADD13R,1.000000X2.000000*%
%ADD14R,1.727200X1.727200*%
%ADD15O,1.727200X1.727200*%
%ADD16R,0.550000X1.600000*%
%ADD17R,1.600000X0.550000*%
%ADD18C,1.524000*%
%ADD19R,2.000000X2.500000*%
%ADD20R,0.800100X1.800860*%
%ADD21R,2.500000X2.000000*%
%ADD22R,1.300000X1.300000*%
%ADD23C,1.300000*%
%ADD24R,1.597660X1.800860*%
%ADD25C,0.600000*%
%ADD26C,0.250000*%
%ADD27C,0.254000*%
G04 APERTURE END LIST*
D10*
D11*
X145669000Y-85979000D03*
D12*
X145669000Y-88519000D03*
X145669000Y-91059000D03*
X145669000Y-93599000D03*
X145669000Y-96139000D03*
X145669000Y-98679000D03*
D13*
X173019000Y-96965000D03*
X174289000Y-96965000D03*
X175559000Y-96965000D03*
X176829000Y-96965000D03*
X178099000Y-96965000D03*
X179369000Y-96965000D03*
X180639000Y-96965000D03*
X181909000Y-96965000D03*
D14*
X183642000Y-104394000D03*
D15*
X183642000Y-101854000D03*
X186182000Y-104394000D03*
X186182000Y-101854000D03*
X188722000Y-104394000D03*
X188722000Y-101854000D03*
D16*
X160268000Y-95944000D03*
X161068000Y-95944000D03*
X161868000Y-95944000D03*
X162668000Y-95944000D03*
X163468000Y-95944000D03*
X164268000Y-95944000D03*
X165068000Y-95944000D03*
X165868000Y-95944000D03*
D17*
X167318000Y-94494000D03*
X167318000Y-93694000D03*
X167318000Y-92894000D03*
X167318000Y-92094000D03*
X167318000Y-91294000D03*
X167318000Y-90494000D03*
X167318000Y-89694000D03*
X167318000Y-88894000D03*
D16*
X165868000Y-87444000D03*
X165068000Y-87444000D03*
X164268000Y-87444000D03*
X163468000Y-87444000D03*
X162668000Y-87444000D03*
X161868000Y-87444000D03*
X161068000Y-87444000D03*
X160268000Y-87444000D03*
D17*
X158818000Y-88894000D03*
X158818000Y-89694000D03*
X158818000Y-90494000D03*
X158818000Y-91294000D03*
X158818000Y-92094000D03*
X158818000Y-92894000D03*
X158818000Y-93694000D03*
X158818000Y-94494000D03*
D11*
X149479000Y-85979000D03*
D12*
X149479000Y-88519000D03*
X149479000Y-91059000D03*
X149479000Y-93599000D03*
X149479000Y-96139000D03*
X149479000Y-98679000D03*
D18*
X163719500Y-103425000D03*
X163719500Y-83425000D03*
D19*
X154755600Y-80391000D03*
X150755600Y-80391000D03*
D11*
X190881000Y-81661000D03*
D12*
X190881000Y-84201000D03*
X190881000Y-86741000D03*
X190881000Y-89281000D03*
X190881000Y-91821000D03*
X190881000Y-94361000D03*
D20*
X155572500Y-84604860D03*
X153672500Y-84604860D03*
X154622500Y-87607140D03*
D11*
X186372500Y-81724500D03*
D12*
X186372500Y-84264500D03*
X186372500Y-86804500D03*
D21*
X167640000Y-84169000D03*
X167640000Y-80169000D03*
X154813000Y-97123000D03*
X154813000Y-93123000D03*
D19*
X165513000Y-99695000D03*
X169513000Y-99695000D03*
D22*
X176657000Y-105727500D03*
D23*
X176657000Y-103227500D03*
D24*
X153515060Y-105029000D03*
X150675340Y-105029000D03*
D21*
X160464500Y-80169000D03*
X160464500Y-84169000D03*
D19*
X162147000Y-99695000D03*
X158147000Y-99695000D03*
X160775400Y-105003600D03*
X156775400Y-105003600D03*
D25*
X164401500Y-79184500D03*
X171450000Y-93789500D03*
X151460200Y-91617800D03*
X153187400Y-86436200D03*
X169608500Y-105537000D03*
X165862000Y-102870000D03*
X183642000Y-98679000D03*
X181419500Y-89535000D03*
X158369000Y-95986600D03*
X150876000Y-95275400D03*
X179768500Y-100203000D03*
X178117500Y-94996000D03*
X173990000Y-87757000D03*
X147447000Y-94538800D03*
X156413200Y-87757000D03*
X157048200Y-88874600D03*
X161798000Y-90487500D03*
X160591500Y-91313000D03*
X161226500Y-92964000D03*
X160655000Y-93726000D03*
X161734500Y-91948000D03*
X171069000Y-106997500D03*
X152781000Y-101346000D03*
X178054000Y-84645500D03*
D26*
X164401500Y-79184500D02*
X165227000Y-80010000D01*
X165227000Y-80010000D02*
X165227000Y-80169000D01*
X158147000Y-99695000D02*
X158147000Y-99688400D01*
X158147000Y-99688400D02*
X160096200Y-97739200D01*
X161868000Y-97059600D02*
X161868000Y-95944000D01*
X161188400Y-97739200D02*
X161868000Y-97059600D01*
X160096200Y-97739200D02*
X161188400Y-97739200D01*
X163719500Y-103425000D02*
X162657800Y-103425000D01*
X160331400Y-101879400D02*
X158147000Y-99695000D01*
X161112200Y-101879400D02*
X160331400Y-101879400D01*
X162657800Y-103425000D02*
X161112200Y-101879400D01*
X150675340Y-105029000D02*
X150698200Y-105029000D01*
X150698200Y-105029000D02*
X156032200Y-99695000D01*
X156032200Y-99695000D02*
X158147000Y-99695000D01*
X145669000Y-91059000D02*
X145567400Y-91059000D01*
X145567400Y-91059000D02*
X144119600Y-89611200D01*
X147809200Y-83337400D02*
X150755600Y-80391000D01*
X145592800Y-83337400D02*
X147809200Y-83337400D01*
X144119600Y-84810600D02*
X145592800Y-83337400D01*
X144119600Y-89611200D02*
X144119600Y-84810600D01*
X145669000Y-91059000D02*
X149479000Y-91059000D01*
X150675340Y-105029000D02*
X150675340Y-104980740D01*
X150755600Y-80391000D02*
X150755600Y-84283800D01*
X150755600Y-84283800D02*
X152222200Y-85750400D01*
X152222200Y-85750400D02*
X152222200Y-86461600D01*
X152222200Y-86461600D02*
X153367740Y-87607140D01*
X153367740Y-87607140D02*
X154622500Y-87607140D01*
X161868000Y-95944000D02*
X161868000Y-93465500D01*
X162668000Y-92665500D02*
X162668000Y-90722500D01*
X161868000Y-93465500D02*
X162668000Y-92665500D01*
X188722000Y-101854000D02*
X190373000Y-103505000D01*
X180040498Y-106610998D02*
X176657000Y-103227500D01*
X188791002Y-106610998D02*
X180040498Y-106610998D01*
X190373000Y-105029000D02*
X188791002Y-106610998D01*
X190373000Y-103505000D02*
X190373000Y-105029000D01*
X188722000Y-101854000D02*
X189039500Y-101854000D01*
X171450000Y-93789500D02*
X171450000Y-94805500D01*
X174289000Y-96965000D02*
X174289000Y-95485500D01*
X174289000Y-95485500D02*
X173609000Y-94805500D01*
X173609000Y-94805500D02*
X171450000Y-94805500D01*
X169513000Y-96742500D02*
X169513000Y-99695000D01*
X171450000Y-94805500D02*
X169513000Y-96742500D01*
X160464500Y-84169000D02*
X160464500Y-84137500D01*
X160464500Y-84137500D02*
X164433000Y-80169000D01*
X164433000Y-80169000D02*
X165227000Y-80169000D01*
X165227000Y-80169000D02*
X167640000Y-80169000D01*
X154622500Y-87607140D02*
X154622500Y-83312000D01*
X158909000Y-82613500D02*
X160464500Y-84169000D01*
X155321000Y-82613500D02*
X158909000Y-82613500D01*
X154622500Y-83312000D02*
X155321000Y-82613500D01*
X154264360Y-87249000D02*
X154622500Y-87607140D01*
X174289000Y-96965000D02*
X174289000Y-100859500D01*
X174289000Y-100859500D02*
X176657000Y-103227500D01*
X160464500Y-84169000D02*
X160464500Y-83439000D01*
X162668000Y-87444000D02*
X162668000Y-86372500D01*
X162668000Y-86372500D02*
X160464500Y-84169000D01*
X159067500Y-99695000D02*
X158147000Y-99695000D01*
X163468000Y-95944000D02*
X163468000Y-91522500D01*
X163468000Y-91522500D02*
X162668000Y-90722500D01*
X162668000Y-90722500D02*
X162668000Y-87444000D01*
X163468000Y-87444000D02*
X163468000Y-86087000D01*
X165386000Y-84169000D02*
X167640000Y-84169000D01*
X163468000Y-86087000D02*
X165386000Y-84169000D01*
X149479000Y-93599000D02*
X151460200Y-91617800D01*
X153672500Y-85951100D02*
X153672500Y-84604860D01*
X153187400Y-86436200D02*
X153672500Y-85951100D01*
X145669000Y-93599000D02*
X149479000Y-93599000D01*
X153672500Y-84604860D02*
X153672500Y-81474100D01*
X153672500Y-81474100D02*
X154755600Y-80391000D01*
X160464500Y-80169000D02*
X154977600Y-80169000D01*
X154977600Y-80169000D02*
X154755600Y-80391000D01*
X165513000Y-99695000D02*
X165513000Y-102521000D01*
X169799000Y-105727500D02*
X176657000Y-105727500D01*
X169608500Y-105537000D02*
X169799000Y-105727500D01*
X165513000Y-102521000D02*
X165862000Y-102870000D01*
X183642000Y-101854000D02*
X183642000Y-98679000D01*
X190881000Y-86741000D02*
X190627000Y-86741000D01*
X190627000Y-86741000D02*
X188468000Y-84582000D01*
X171958000Y-78549500D02*
X170815000Y-79692500D01*
X186753500Y-78549500D02*
X171958000Y-78549500D01*
X188468000Y-80264000D02*
X186753500Y-78549500D01*
X188468000Y-84582000D02*
X188468000Y-80264000D01*
X165068000Y-87444000D02*
X165068000Y-92615000D01*
X164268000Y-93415000D02*
X164268000Y-95944000D01*
X165068000Y-92615000D02*
X164268000Y-93415000D01*
X165068000Y-87444000D02*
X165068000Y-86328500D01*
X162465000Y-78168500D02*
X160464500Y-80169000D01*
X169291000Y-78168500D02*
X162465000Y-78168500D01*
X170815000Y-79692500D02*
X169291000Y-78168500D01*
X170815000Y-84709000D02*
X170815000Y-79692500D01*
X169545000Y-85979000D02*
X170815000Y-84709000D01*
X165417500Y-85979000D02*
X169545000Y-85979000D01*
X165068000Y-86328500D02*
X165417500Y-85979000D01*
X188023500Y-89598500D02*
X190881000Y-86741000D01*
X181483000Y-89598500D02*
X188023500Y-89598500D01*
X181419500Y-89535000D02*
X181483000Y-89598500D01*
X173019000Y-96965000D02*
X173019000Y-102089500D01*
X173019000Y-102089500D02*
X176657000Y-105727500D01*
X160179000Y-80454500D02*
X160464500Y-80169000D01*
X162147000Y-99695000D02*
X165513000Y-99695000D01*
X164268000Y-95944000D02*
X164268000Y-98450000D01*
X164268000Y-98450000D02*
X165513000Y-99695000D01*
X162668000Y-95944000D02*
X162668000Y-99174000D01*
X162668000Y-99174000D02*
X162147000Y-99695000D01*
X149479000Y-96139000D02*
X150012400Y-96139000D01*
X150012400Y-96139000D02*
X150876000Y-95275400D01*
X158411600Y-95944000D02*
X160268000Y-95944000D01*
X158369000Y-95986600D02*
X158411600Y-95944000D01*
X149479000Y-96139000D02*
X149415500Y-96139000D01*
X175559000Y-96965000D02*
X175559000Y-94279000D01*
X172574000Y-91294000D02*
X167318000Y-91294000D01*
X175559000Y-94279000D02*
X172574000Y-91294000D01*
X176829000Y-96965000D02*
X176829000Y-94152000D01*
X173171000Y-90494000D02*
X167318000Y-90494000D01*
X176829000Y-94152000D02*
X173171000Y-90494000D01*
X179768500Y-100203000D02*
X179369000Y-99803500D01*
X179369000Y-99803500D02*
X179369000Y-96965000D01*
X179369000Y-96965000D02*
X179369000Y-94215500D01*
X174847500Y-89694000D02*
X167318000Y-89694000D01*
X179369000Y-94215500D02*
X174847500Y-89694000D01*
X180639000Y-96965000D02*
X180639000Y-101391000D01*
X180639000Y-101391000D02*
X183642000Y-104394000D01*
X180639000Y-96965000D02*
X180639000Y-93644000D01*
X175889000Y-88894000D02*
X167318000Y-88894000D01*
X180639000Y-93644000D02*
X175889000Y-88894000D01*
X165868000Y-87444000D02*
X173677000Y-87444000D01*
X178099000Y-95014500D02*
X178099000Y-96965000D01*
X178117500Y-94996000D02*
X178099000Y-95014500D01*
X173677000Y-87444000D02*
X173990000Y-87757000D01*
X186182000Y-104394000D02*
X186182000Y-104457500D01*
X186182000Y-104457500D02*
X184531000Y-106108500D01*
X178099000Y-102851500D02*
X178099000Y-96965000D01*
X181356000Y-106108500D02*
X178099000Y-102851500D01*
X184531000Y-106108500D02*
X181356000Y-106108500D01*
X186182000Y-104394000D02*
X186182000Y-104775000D01*
X145669000Y-98679000D02*
X146050000Y-98679000D01*
X146050000Y-98679000D02*
X147447000Y-97282000D01*
X147447000Y-97282000D02*
X147447000Y-94538800D01*
X156413200Y-87757000D02*
X156726200Y-87444000D01*
X156726200Y-87444000D02*
X160268000Y-87444000D01*
X145415000Y-98679000D02*
X145478500Y-98679000D01*
X157067600Y-88894000D02*
X158818000Y-88894000D01*
X157048200Y-88874600D02*
X157067600Y-88894000D01*
X155572500Y-84604860D02*
X155572500Y-88642102D01*
X156624398Y-89694000D02*
X158818000Y-89694000D01*
X155572500Y-88642102D02*
X156624398Y-89694000D01*
X158818000Y-90494000D02*
X153994000Y-90494000D01*
X153994000Y-90494000D02*
X149479000Y-85979000D01*
X161791500Y-90494000D02*
X158818000Y-90494000D01*
X161798000Y-90487500D02*
X161791500Y-90494000D01*
X149479000Y-88519000D02*
X148209000Y-88519000D01*
X148209000Y-88519000D02*
X145669000Y-85979000D01*
X158818000Y-91294000D02*
X152254000Y-91294000D01*
X152254000Y-91294000D02*
X149479000Y-88519000D01*
X149098000Y-88519000D02*
X149479000Y-88519000D01*
X160572500Y-91294000D02*
X158818000Y-91294000D01*
X160591500Y-91313000D02*
X160572500Y-91294000D01*
X158818000Y-92894000D02*
X161156500Y-92894000D01*
X161156500Y-92894000D02*
X161226500Y-92964000D01*
X158818000Y-93694000D02*
X160623000Y-93694000D01*
X160623000Y-93694000D02*
X160655000Y-93726000D01*
X149479000Y-98679000D02*
X149542500Y-98679000D01*
X149542500Y-98679000D02*
X151574500Y-96647000D01*
X152844500Y-94742000D02*
X158570000Y-94742000D01*
X151574500Y-96012000D02*
X152844500Y-94742000D01*
X151574500Y-96647000D02*
X151574500Y-96012000D01*
X158570000Y-94742000D02*
X158818000Y-94494000D01*
X158818000Y-94610500D02*
X158818000Y-94494000D01*
X158818000Y-92094000D02*
X161588500Y-92094000D01*
X161588500Y-92094000D02*
X161734500Y-91948000D01*
X158818000Y-92094000D02*
X155842000Y-92094000D01*
X155842000Y-92094000D02*
X154813000Y-93123000D01*
X154813000Y-97123000D02*
X154813000Y-98869500D01*
X192786000Y-96266000D02*
X190881000Y-94361000D01*
X192786000Y-104521000D02*
X192786000Y-96266000D01*
X190246000Y-107061000D02*
X192786000Y-104521000D01*
X171132500Y-107061000D02*
X190246000Y-107061000D01*
X171069000Y-106997500D02*
X171132500Y-107061000D01*
X152781000Y-100901500D02*
X152781000Y-101346000D01*
X154813000Y-98869500D02*
X152781000Y-100901500D01*
X153515060Y-105029000D02*
X156750000Y-105029000D01*
X156750000Y-105029000D02*
X156775400Y-105003600D01*
X153257500Y-105029000D02*
X153384500Y-104902000D01*
X160775400Y-105003600D02*
X165862000Y-105003600D01*
X167318000Y-103547600D02*
X167318000Y-94494000D01*
X165862000Y-105003600D02*
X167318000Y-103547600D01*
X183261000Y-84645500D02*
X185420000Y-86804500D01*
X178054000Y-84645500D02*
X183261000Y-84645500D01*
X185420000Y-86804500D02*
X186372500Y-86804500D01*
D27*
G36*
X174799000Y-94593802D02*
X174799000Y-95330000D01*
X174574750Y-95330000D01*
X174416000Y-95488750D01*
X174416000Y-95943075D01*
X174411560Y-95965000D01*
X174411560Y-97965000D01*
X174416000Y-97988597D01*
X174416000Y-98441250D01*
X174574750Y-98600000D01*
X174915309Y-98600000D01*
X174942320Y-98588812D01*
X175059000Y-98612440D01*
X176059000Y-98612440D01*
X176198956Y-98586105D01*
X176329000Y-98612440D01*
X177329000Y-98612440D01*
X177339000Y-98610558D01*
X177339000Y-102173556D01*
X177320729Y-102097889D01*
X176837922Y-101929878D01*
X176327572Y-101959417D01*
X175993271Y-102097889D01*
X175937590Y-102328484D01*
X176657000Y-103047895D01*
X176671142Y-103033752D01*
X176850748Y-103213358D01*
X176836605Y-103227500D01*
X177556016Y-103946910D01*
X177786611Y-103891229D01*
X177858201Y-103685503D01*
X180473698Y-106301000D01*
X177954440Y-106301000D01*
X177954440Y-105077500D01*
X177910162Y-104842183D01*
X177771090Y-104626059D01*
X177558890Y-104481069D01*
X177307000Y-104430060D01*
X177144615Y-104430060D01*
X177320729Y-104357111D01*
X177376410Y-104126516D01*
X176657000Y-103407105D01*
X176642858Y-103421248D01*
X176463252Y-103241642D01*
X176477395Y-103227500D01*
X175757984Y-102508090D01*
X175527389Y-102563771D01*
X175359378Y-103046578D01*
X175378331Y-103374029D01*
X173779000Y-101774698D01*
X173779000Y-98600000D01*
X174003250Y-98600000D01*
X174162000Y-98441250D01*
X174162000Y-97986925D01*
X174166440Y-97965000D01*
X174166440Y-95965000D01*
X174162000Y-95941403D01*
X174162000Y-95488750D01*
X174003250Y-95330000D01*
X173662691Y-95330000D01*
X173635680Y-95341188D01*
X173519000Y-95317560D01*
X172519000Y-95317560D01*
X172283683Y-95361838D01*
X172067559Y-95500910D01*
X171922569Y-95713110D01*
X171871560Y-95965000D01*
X171871560Y-97965000D01*
X171915838Y-98200317D01*
X172054910Y-98416441D01*
X172259000Y-98555890D01*
X172259000Y-102089500D01*
X172316852Y-102380339D01*
X172481599Y-102626901D01*
X174822198Y-104967500D01*
X170361131Y-104967500D01*
X170138827Y-104744808D01*
X169795299Y-104602162D01*
X169423333Y-104601838D01*
X169079557Y-104743883D01*
X168816308Y-105006673D01*
X168673662Y-105350201D01*
X168673338Y-105722167D01*
X168815383Y-106065943D01*
X169078173Y-106329192D01*
X169421701Y-106471838D01*
X169721576Y-106472099D01*
X169799000Y-106487500D01*
X170268367Y-106487500D01*
X170134162Y-106810701D01*
X170133899Y-107113000D01*
X144347000Y-107113000D01*
X144347000Y-105321799D01*
X144670299Y-105321799D01*
X144933881Y-105959715D01*
X145421518Y-106448204D01*
X146058973Y-106712899D01*
X146749199Y-106713501D01*
X147387115Y-106449919D01*
X147875604Y-105962282D01*
X148140299Y-105324827D01*
X148140307Y-105314750D01*
X149241510Y-105314750D01*
X149241510Y-106055740D01*
X149338183Y-106289129D01*
X149516812Y-106467757D01*
X149750201Y-106564430D01*
X150389590Y-106564430D01*
X150548340Y-106405680D01*
X150548340Y-105156000D01*
X149400260Y-105156000D01*
X149241510Y-105314750D01*
X148140307Y-105314750D01*
X148140901Y-104634601D01*
X147879623Y-104002260D01*
X149241510Y-104002260D01*
X149241510Y-104743250D01*
X149400260Y-104902000D01*
X150548340Y-104902000D01*
X150548340Y-103652320D01*
X150802340Y-103652320D01*
X150802340Y-104902000D01*
X150822340Y-104902000D01*
X150822340Y-105156000D01*
X150802340Y-105156000D01*
X150802340Y-106405680D01*
X150961090Y-106564430D01*
X151600479Y-106564430D01*
X151833868Y-106467757D01*
X152012497Y-106289129D01*
X152097746Y-106083319D01*
X152113068Y-106164747D01*
X152252140Y-106380871D01*
X152464340Y-106525861D01*
X152716230Y-106576870D01*
X154313890Y-106576870D01*
X154549207Y-106532592D01*
X154765331Y-106393520D01*
X154910321Y-106181320D01*
X154961330Y-105929430D01*
X154961330Y-105789000D01*
X155127960Y-105789000D01*
X155127960Y-106253600D01*
X155172238Y-106488917D01*
X155311310Y-106705041D01*
X155523510Y-106850031D01*
X155775400Y-106901040D01*
X157775400Y-106901040D01*
X158010717Y-106856762D01*
X158226841Y-106717690D01*
X158371831Y-106505490D01*
X158422840Y-106253600D01*
X158422840Y-103753600D01*
X158378562Y-103518283D01*
X158239490Y-103302159D01*
X158027290Y-103157169D01*
X157775400Y-103106160D01*
X155775400Y-103106160D01*
X155540083Y-103150438D01*
X155323959Y-103289510D01*
X155178969Y-103501710D01*
X155127960Y-103753600D01*
X155127960Y-104269000D01*
X154961330Y-104269000D01*
X154961330Y-104128570D01*
X154917052Y-103893253D01*
X154777980Y-103677129D01*
X154565780Y-103532139D01*
X154313890Y-103481130D01*
X152716230Y-103481130D01*
X152480913Y-103525408D01*
X152264789Y-103664480D01*
X152119799Y-103876680D01*
X152099229Y-103978259D01*
X152012497Y-103768871D01*
X151833868Y-103590243D01*
X151600479Y-103493570D01*
X150961090Y-103493570D01*
X150802340Y-103652320D01*
X150548340Y-103652320D01*
X150389590Y-103493570D01*
X149750201Y-103493570D01*
X149516812Y-103590243D01*
X149338183Y-103768871D01*
X149241510Y-104002260D01*
X147879623Y-104002260D01*
X147877319Y-103996685D01*
X147389682Y-103508196D01*
X146752227Y-103243501D01*
X146062001Y-103242899D01*
X145424085Y-103506481D01*
X144935596Y-103994118D01*
X144670901Y-104631573D01*
X144670299Y-105321799D01*
X144347000Y-105321799D01*
X144347000Y-102444787D01*
X162918892Y-102444787D01*
X163719500Y-103245395D01*
X164520108Y-102444787D01*
X164450643Y-102202603D01*
X163927198Y-102015856D01*
X163372132Y-102043638D01*
X162988357Y-102202603D01*
X162918892Y-102444787D01*
X144347000Y-102444787D01*
X144347000Y-99622556D01*
X144424585Y-99738670D01*
X144910766Y-100063526D01*
X145484255Y-100177600D01*
X145853745Y-100177600D01*
X146427234Y-100063526D01*
X146913415Y-99738670D01*
X147238271Y-99252489D01*
X147352345Y-98679000D01*
X147314593Y-98489209D01*
X147984401Y-97819401D01*
X148149148Y-97572840D01*
X148207000Y-97282000D01*
X148207000Y-97157386D01*
X148234585Y-97198670D01*
X148549366Y-97409000D01*
X148234585Y-97619330D01*
X147909729Y-98105511D01*
X147795655Y-98679000D01*
X147909729Y-99252489D01*
X148234585Y-99738670D01*
X148720766Y-100063526D01*
X149294255Y-100177600D01*
X149663745Y-100177600D01*
X150237234Y-100063526D01*
X150723415Y-99738670D01*
X151048271Y-99252489D01*
X151162345Y-98679000D01*
X151071917Y-98224385D01*
X152111901Y-97184401D01*
X152276648Y-96937839D01*
X152334500Y-96647000D01*
X152334500Y-96326802D01*
X153159302Y-95502000D01*
X153422484Y-95502000D01*
X153327683Y-95519838D01*
X153111559Y-95658910D01*
X152966569Y-95871110D01*
X152915560Y-96123000D01*
X152915560Y-98123000D01*
X152959838Y-98358317D01*
X153098910Y-98574441D01*
X153311110Y-98719431D01*
X153563000Y-98770440D01*
X153837258Y-98770440D01*
X152243599Y-100364099D01*
X152078852Y-100610661D01*
X152050278Y-100754310D01*
X151988808Y-100815673D01*
X151846162Y-101159201D01*
X151845838Y-101531167D01*
X151987883Y-101874943D01*
X152250673Y-102138192D01*
X152594201Y-102280838D01*
X152966167Y-102281162D01*
X153309943Y-102139117D01*
X153573192Y-101876327D01*
X153715838Y-101532799D01*
X153716162Y-101160833D01*
X153681166Y-101076136D01*
X154776552Y-99980750D01*
X156512000Y-99980750D01*
X156512000Y-101071310D01*
X156608673Y-101304699D01*
X156787302Y-101483327D01*
X157020691Y-101580000D01*
X157861250Y-101580000D01*
X158020000Y-101421250D01*
X158020000Y-99822000D01*
X158274000Y-99822000D01*
X158274000Y-101421250D01*
X158432750Y-101580000D01*
X159273309Y-101580000D01*
X159506698Y-101483327D01*
X159685327Y-101304699D01*
X159782000Y-101071310D01*
X159782000Y-99980750D01*
X159623250Y-99822000D01*
X158274000Y-99822000D01*
X158020000Y-99822000D01*
X156670750Y-99822000D01*
X156512000Y-99980750D01*
X154776552Y-99980750D01*
X155350401Y-99406901D01*
X155515148Y-99160339D01*
X155573000Y-98869500D01*
X155573000Y-98770440D01*
X156063000Y-98770440D01*
X156298317Y-98726162D01*
X156512000Y-98588661D01*
X156512000Y-99409250D01*
X156670750Y-99568000D01*
X158020000Y-99568000D01*
X158020000Y-97968750D01*
X158274000Y-97968750D01*
X158274000Y-99568000D01*
X159623250Y-99568000D01*
X159782000Y-99409250D01*
X159782000Y-98318690D01*
X159685327Y-98085301D01*
X159506698Y-97906673D01*
X159273309Y-97810000D01*
X158432750Y-97810000D01*
X158274000Y-97968750D01*
X158020000Y-97968750D01*
X157861250Y-97810000D01*
X157020691Y-97810000D01*
X156787302Y-97906673D01*
X156710440Y-97983535D01*
X156710440Y-96123000D01*
X156666162Y-95887683D01*
X156527090Y-95671559D01*
X156314890Y-95526569D01*
X156193565Y-95502000D01*
X157557820Y-95502000D01*
X157434162Y-95799801D01*
X157433838Y-96171767D01*
X157575883Y-96515543D01*
X157838673Y-96778792D01*
X158182201Y-96921438D01*
X158554167Y-96921762D01*
X158897943Y-96779717D01*
X158973792Y-96704000D01*
X159345560Y-96704000D01*
X159345560Y-96744000D01*
X159389838Y-96979317D01*
X159528910Y-97195441D01*
X159741110Y-97340431D01*
X159993000Y-97391440D01*
X160543000Y-97391440D01*
X160672589Y-97367056D01*
X160793000Y-97391440D01*
X161343000Y-97391440D01*
X161448705Y-97371550D01*
X161466690Y-97379000D01*
X161582250Y-97379000D01*
X161678651Y-97282599D01*
X161794441Y-97208090D01*
X161867884Y-97100603D01*
X161908000Y-97162946D01*
X161908000Y-97797560D01*
X161147000Y-97797560D01*
X160911683Y-97841838D01*
X160695559Y-97980910D01*
X160550569Y-98193110D01*
X160499560Y-98445000D01*
X160499560Y-100945000D01*
X160543838Y-101180317D01*
X160682910Y-101396441D01*
X160895110Y-101541431D01*
X161147000Y-101592440D01*
X163147000Y-101592440D01*
X163382317Y-101548162D01*
X163598441Y-101409090D01*
X163743431Y-101196890D01*
X163794440Y-100945000D01*
X163794440Y-100455000D01*
X163865560Y-100455000D01*
X163865560Y-100945000D01*
X163909838Y-101180317D01*
X164048910Y-101396441D01*
X164261110Y-101541431D01*
X164513000Y-101592440D01*
X164753000Y-101592440D01*
X164753000Y-102521000D01*
X164778035Y-102646857D01*
X164699713Y-102624392D01*
X163899105Y-103425000D01*
X163913248Y-103439143D01*
X163733643Y-103618748D01*
X163719500Y-103604605D01*
X163705358Y-103618748D01*
X163525753Y-103439143D01*
X163539895Y-103425000D01*
X162739287Y-102624392D01*
X162497103Y-102693857D01*
X162310356Y-103217302D01*
X162320939Y-103428734D01*
X162239490Y-103302159D01*
X162027290Y-103157169D01*
X161775400Y-103106160D01*
X159775400Y-103106160D01*
X159540083Y-103150438D01*
X159323959Y-103289510D01*
X159178969Y-103501710D01*
X159127960Y-103753600D01*
X159127960Y-106253600D01*
X159172238Y-106488917D01*
X159311310Y-106705041D01*
X159523510Y-106850031D01*
X159775400Y-106901040D01*
X161775400Y-106901040D01*
X162010717Y-106856762D01*
X162226841Y-106717690D01*
X162371831Y-106505490D01*
X162422840Y-106253600D01*
X162422840Y-105763600D01*
X165862000Y-105763600D01*
X166152839Y-105705748D01*
X166399401Y-105541001D01*
X167855401Y-104085001D01*
X168020148Y-103838439D01*
X168078000Y-103547600D01*
X168078000Y-101408025D01*
X168153302Y-101483327D01*
X168386691Y-101580000D01*
X169227250Y-101580000D01*
X169386000Y-101421250D01*
X169386000Y-99822000D01*
X169640000Y-99822000D01*
X169640000Y-101421250D01*
X169798750Y-101580000D01*
X170639309Y-101580000D01*
X170872698Y-101483327D01*
X171051327Y-101304699D01*
X171148000Y-101071310D01*
X171148000Y-99980750D01*
X170989250Y-99822000D01*
X169640000Y-99822000D01*
X169386000Y-99822000D01*
X169366000Y-99822000D01*
X169366000Y-99568000D01*
X169386000Y-99568000D01*
X169386000Y-97968750D01*
X169640000Y-97968750D01*
X169640000Y-99568000D01*
X170989250Y-99568000D01*
X171148000Y-99409250D01*
X171148000Y-98318690D01*
X171051327Y-98085301D01*
X170872698Y-97906673D01*
X170639309Y-97810000D01*
X169798750Y-97810000D01*
X169640000Y-97968750D01*
X169386000Y-97968750D01*
X169227250Y-97810000D01*
X168386691Y-97810000D01*
X168153302Y-97906673D01*
X168078000Y-97981975D01*
X168078000Y-95416440D01*
X168118000Y-95416440D01*
X168353317Y-95372162D01*
X168569441Y-95233090D01*
X168714431Y-95020890D01*
X168765440Y-94769000D01*
X168765440Y-94219000D01*
X168741056Y-94089411D01*
X168765440Y-93969000D01*
X168765440Y-93419000D01*
X168741056Y-93289411D01*
X168765440Y-93169000D01*
X168765440Y-92619000D01*
X168741056Y-92489411D01*
X168765440Y-92369000D01*
X168765440Y-92054000D01*
X172259198Y-92054000D01*
X174799000Y-94593802D01*
X174799000Y-94593802D01*
G37*
X174799000Y-94593802D02*
X174799000Y-95330000D01*
X174574750Y-95330000D01*
X174416000Y-95488750D01*
X174416000Y-95943075D01*
X174411560Y-95965000D01*
X174411560Y-97965000D01*
X174416000Y-97988597D01*
X174416000Y-98441250D01*
X174574750Y-98600000D01*
X174915309Y-98600000D01*
X174942320Y-98588812D01*
X175059000Y-98612440D01*
X176059000Y-98612440D01*
X176198956Y-98586105D01*
X176329000Y-98612440D01*
X177329000Y-98612440D01*
X177339000Y-98610558D01*
X177339000Y-102173556D01*
X177320729Y-102097889D01*
X176837922Y-101929878D01*
X176327572Y-101959417D01*
X175993271Y-102097889D01*
X175937590Y-102328484D01*
X176657000Y-103047895D01*
X176671142Y-103033752D01*
X176850748Y-103213358D01*
X176836605Y-103227500D01*
X177556016Y-103946910D01*
X177786611Y-103891229D01*
X177858201Y-103685503D01*
X180473698Y-106301000D01*
X177954440Y-106301000D01*
X177954440Y-105077500D01*
X177910162Y-104842183D01*
X177771090Y-104626059D01*
X177558890Y-104481069D01*
X177307000Y-104430060D01*
X177144615Y-104430060D01*
X177320729Y-104357111D01*
X177376410Y-104126516D01*
X176657000Y-103407105D01*
X176642858Y-103421248D01*
X176463252Y-103241642D01*
X176477395Y-103227500D01*
X175757984Y-102508090D01*
X175527389Y-102563771D01*
X175359378Y-103046578D01*
X175378331Y-103374029D01*
X173779000Y-101774698D01*
X173779000Y-98600000D01*
X174003250Y-98600000D01*
X174162000Y-98441250D01*
X174162000Y-97986925D01*
X174166440Y-97965000D01*
X174166440Y-95965000D01*
X174162000Y-95941403D01*
X174162000Y-95488750D01*
X174003250Y-95330000D01*
X173662691Y-95330000D01*
X173635680Y-95341188D01*
X173519000Y-95317560D01*
X172519000Y-95317560D01*
X172283683Y-95361838D01*
X172067559Y-95500910D01*
X171922569Y-95713110D01*
X171871560Y-95965000D01*
X171871560Y-97965000D01*
X171915838Y-98200317D01*
X172054910Y-98416441D01*
X172259000Y-98555890D01*
X172259000Y-102089500D01*
X172316852Y-102380339D01*
X172481599Y-102626901D01*
X174822198Y-104967500D01*
X170361131Y-104967500D01*
X170138827Y-104744808D01*
X169795299Y-104602162D01*
X169423333Y-104601838D01*
X169079557Y-104743883D01*
X168816308Y-105006673D01*
X168673662Y-105350201D01*
X168673338Y-105722167D01*
X168815383Y-106065943D01*
X169078173Y-106329192D01*
X169421701Y-106471838D01*
X169721576Y-106472099D01*
X169799000Y-106487500D01*
X170268367Y-106487500D01*
X170134162Y-106810701D01*
X170133899Y-107113000D01*
X144347000Y-107113000D01*
X144347000Y-105321799D01*
X144670299Y-105321799D01*
X144933881Y-105959715D01*
X145421518Y-106448204D01*
X146058973Y-106712899D01*
X146749199Y-106713501D01*
X147387115Y-106449919D01*
X147875604Y-105962282D01*
X148140299Y-105324827D01*
X148140307Y-105314750D01*
X149241510Y-105314750D01*
X149241510Y-106055740D01*
X149338183Y-106289129D01*
X149516812Y-106467757D01*
X149750201Y-106564430D01*
X150389590Y-106564430D01*
X150548340Y-106405680D01*
X150548340Y-105156000D01*
X149400260Y-105156000D01*
X149241510Y-105314750D01*
X148140307Y-105314750D01*
X148140901Y-104634601D01*
X147879623Y-104002260D01*
X149241510Y-104002260D01*
X149241510Y-104743250D01*
X149400260Y-104902000D01*
X150548340Y-104902000D01*
X150548340Y-103652320D01*
X150802340Y-103652320D01*
X150802340Y-104902000D01*
X150822340Y-104902000D01*
X150822340Y-105156000D01*
X150802340Y-105156000D01*
X150802340Y-106405680D01*
X150961090Y-106564430D01*
X151600479Y-106564430D01*
X151833868Y-106467757D01*
X152012497Y-106289129D01*
X152097746Y-106083319D01*
X152113068Y-106164747D01*
X152252140Y-106380871D01*
X152464340Y-106525861D01*
X152716230Y-106576870D01*
X154313890Y-106576870D01*
X154549207Y-106532592D01*
X154765331Y-106393520D01*
X154910321Y-106181320D01*
X154961330Y-105929430D01*
X154961330Y-105789000D01*
X155127960Y-105789000D01*
X155127960Y-106253600D01*
X155172238Y-106488917D01*
X155311310Y-106705041D01*
X155523510Y-106850031D01*
X155775400Y-106901040D01*
X157775400Y-106901040D01*
X158010717Y-106856762D01*
X158226841Y-106717690D01*
X158371831Y-106505490D01*
X158422840Y-106253600D01*
X158422840Y-103753600D01*
X158378562Y-103518283D01*
X158239490Y-103302159D01*
X158027290Y-103157169D01*
X157775400Y-103106160D01*
X155775400Y-103106160D01*
X155540083Y-103150438D01*
X155323959Y-103289510D01*
X155178969Y-103501710D01*
X155127960Y-103753600D01*
X155127960Y-104269000D01*
X154961330Y-104269000D01*
X154961330Y-104128570D01*
X154917052Y-103893253D01*
X154777980Y-103677129D01*
X154565780Y-103532139D01*
X154313890Y-103481130D01*
X152716230Y-103481130D01*
X152480913Y-103525408D01*
X152264789Y-103664480D01*
X152119799Y-103876680D01*
X152099229Y-103978259D01*
X152012497Y-103768871D01*
X151833868Y-103590243D01*
X151600479Y-103493570D01*
X150961090Y-103493570D01*
X150802340Y-103652320D01*
X150548340Y-103652320D01*
X150389590Y-103493570D01*
X149750201Y-103493570D01*
X149516812Y-103590243D01*
X149338183Y-103768871D01*
X149241510Y-104002260D01*
X147879623Y-104002260D01*
X147877319Y-103996685D01*
X147389682Y-103508196D01*
X146752227Y-103243501D01*
X146062001Y-103242899D01*
X145424085Y-103506481D01*
X144935596Y-103994118D01*
X144670901Y-104631573D01*
X144670299Y-105321799D01*
X144347000Y-105321799D01*
X144347000Y-102444787D01*
X162918892Y-102444787D01*
X163719500Y-103245395D01*
X164520108Y-102444787D01*
X164450643Y-102202603D01*
X163927198Y-102015856D01*
X163372132Y-102043638D01*
X162988357Y-102202603D01*
X162918892Y-102444787D01*
X144347000Y-102444787D01*
X144347000Y-99622556D01*
X144424585Y-99738670D01*
X144910766Y-100063526D01*
X145484255Y-100177600D01*
X145853745Y-100177600D01*
X146427234Y-100063526D01*
X146913415Y-99738670D01*
X147238271Y-99252489D01*
X147352345Y-98679000D01*
X147314593Y-98489209D01*
X147984401Y-97819401D01*
X148149148Y-97572840D01*
X148207000Y-97282000D01*
X148207000Y-97157386D01*
X148234585Y-97198670D01*
X148549366Y-97409000D01*
X148234585Y-97619330D01*
X147909729Y-98105511D01*
X147795655Y-98679000D01*
X147909729Y-99252489D01*
X148234585Y-99738670D01*
X148720766Y-100063526D01*
X149294255Y-100177600D01*
X149663745Y-100177600D01*
X150237234Y-100063526D01*
X150723415Y-99738670D01*
X151048271Y-99252489D01*
X151162345Y-98679000D01*
X151071917Y-98224385D01*
X152111901Y-97184401D01*
X152276648Y-96937839D01*
X152334500Y-96647000D01*
X152334500Y-96326802D01*
X153159302Y-95502000D01*
X153422484Y-95502000D01*
X153327683Y-95519838D01*
X153111559Y-95658910D01*
X152966569Y-95871110D01*
X152915560Y-96123000D01*
X152915560Y-98123000D01*
X152959838Y-98358317D01*
X153098910Y-98574441D01*
X153311110Y-98719431D01*
X153563000Y-98770440D01*
X153837258Y-98770440D01*
X152243599Y-100364099D01*
X152078852Y-100610661D01*
X152050278Y-100754310D01*
X151988808Y-100815673D01*
X151846162Y-101159201D01*
X151845838Y-101531167D01*
X151987883Y-101874943D01*
X152250673Y-102138192D01*
X152594201Y-102280838D01*
X152966167Y-102281162D01*
X153309943Y-102139117D01*
X153573192Y-101876327D01*
X153715838Y-101532799D01*
X153716162Y-101160833D01*
X153681166Y-101076136D01*
X154776552Y-99980750D01*
X156512000Y-99980750D01*
X156512000Y-101071310D01*
X156608673Y-101304699D01*
X156787302Y-101483327D01*
X157020691Y-101580000D01*
X157861250Y-101580000D01*
X158020000Y-101421250D01*
X158020000Y-99822000D01*
X158274000Y-99822000D01*
X158274000Y-101421250D01*
X158432750Y-101580000D01*
X159273309Y-101580000D01*
X159506698Y-101483327D01*
X159685327Y-101304699D01*
X159782000Y-101071310D01*
X159782000Y-99980750D01*
X159623250Y-99822000D01*
X158274000Y-99822000D01*
X158020000Y-99822000D01*
X156670750Y-99822000D01*
X156512000Y-99980750D01*
X154776552Y-99980750D01*
X155350401Y-99406901D01*
X155515148Y-99160339D01*
X155573000Y-98869500D01*
X155573000Y-98770440D01*
X156063000Y-98770440D01*
X156298317Y-98726162D01*
X156512000Y-98588661D01*
X156512000Y-99409250D01*
X156670750Y-99568000D01*
X158020000Y-99568000D01*
X158020000Y-97968750D01*
X158274000Y-97968750D01*
X158274000Y-99568000D01*
X159623250Y-99568000D01*
X159782000Y-99409250D01*
X159782000Y-98318690D01*
X159685327Y-98085301D01*
X159506698Y-97906673D01*
X159273309Y-97810000D01*
X158432750Y-97810000D01*
X158274000Y-97968750D01*
X158020000Y-97968750D01*
X157861250Y-97810000D01*
X157020691Y-97810000D01*
X156787302Y-97906673D01*
X156710440Y-97983535D01*
X156710440Y-96123000D01*
X156666162Y-95887683D01*
X156527090Y-95671559D01*
X156314890Y-95526569D01*
X156193565Y-95502000D01*
X157557820Y-95502000D01*
X157434162Y-95799801D01*
X157433838Y-96171767D01*
X157575883Y-96515543D01*
X157838673Y-96778792D01*
X158182201Y-96921438D01*
X158554167Y-96921762D01*
X158897943Y-96779717D01*
X158973792Y-96704000D01*
X159345560Y-96704000D01*
X159345560Y-96744000D01*
X159389838Y-96979317D01*
X159528910Y-97195441D01*
X159741110Y-97340431D01*
X159993000Y-97391440D01*
X160543000Y-97391440D01*
X160672589Y-97367056D01*
X160793000Y-97391440D01*
X161343000Y-97391440D01*
X161448705Y-97371550D01*
X161466690Y-97379000D01*
X161582250Y-97379000D01*
X161678651Y-97282599D01*
X161794441Y-97208090D01*
X161867884Y-97100603D01*
X161908000Y-97162946D01*
X161908000Y-97797560D01*
X161147000Y-97797560D01*
X160911683Y-97841838D01*
X160695559Y-97980910D01*
X160550569Y-98193110D01*
X160499560Y-98445000D01*
X160499560Y-100945000D01*
X160543838Y-101180317D01*
X160682910Y-101396441D01*
X160895110Y-101541431D01*
X161147000Y-101592440D01*
X163147000Y-101592440D01*
X163382317Y-101548162D01*
X163598441Y-101409090D01*
X163743431Y-101196890D01*
X163794440Y-100945000D01*
X163794440Y-100455000D01*
X163865560Y-100455000D01*
X163865560Y-100945000D01*
X163909838Y-101180317D01*
X164048910Y-101396441D01*
X164261110Y-101541431D01*
X164513000Y-101592440D01*
X164753000Y-101592440D01*
X164753000Y-102521000D01*
X164778035Y-102646857D01*
X164699713Y-102624392D01*
X163899105Y-103425000D01*
X163913248Y-103439143D01*
X163733643Y-103618748D01*
X163719500Y-103604605D01*
X163705358Y-103618748D01*
X163525753Y-103439143D01*
X163539895Y-103425000D01*
X162739287Y-102624392D01*
X162497103Y-102693857D01*
X162310356Y-103217302D01*
X162320939Y-103428734D01*
X162239490Y-103302159D01*
X162027290Y-103157169D01*
X161775400Y-103106160D01*
X159775400Y-103106160D01*
X159540083Y-103150438D01*
X159323959Y-103289510D01*
X159178969Y-103501710D01*
X159127960Y-103753600D01*
X159127960Y-106253600D01*
X159172238Y-106488917D01*
X159311310Y-106705041D01*
X159523510Y-106850031D01*
X159775400Y-106901040D01*
X161775400Y-106901040D01*
X162010717Y-106856762D01*
X162226841Y-106717690D01*
X162371831Y-106505490D01*
X162422840Y-106253600D01*
X162422840Y-105763600D01*
X165862000Y-105763600D01*
X166152839Y-105705748D01*
X166399401Y-105541001D01*
X167855401Y-104085001D01*
X168020148Y-103838439D01*
X168078000Y-103547600D01*
X168078000Y-101408025D01*
X168153302Y-101483327D01*
X168386691Y-101580000D01*
X169227250Y-101580000D01*
X169386000Y-101421250D01*
X169386000Y-99822000D01*
X169640000Y-99822000D01*
X169640000Y-101421250D01*
X169798750Y-101580000D01*
X170639309Y-101580000D01*
X170872698Y-101483327D01*
X171051327Y-101304699D01*
X171148000Y-101071310D01*
X171148000Y-99980750D01*
X170989250Y-99822000D01*
X169640000Y-99822000D01*
X169386000Y-99822000D01*
X169366000Y-99822000D01*
X169366000Y-99568000D01*
X169386000Y-99568000D01*
X169386000Y-97968750D01*
X169640000Y-97968750D01*
X169640000Y-99568000D01*
X170989250Y-99568000D01*
X171148000Y-99409250D01*
X171148000Y-98318690D01*
X171051327Y-98085301D01*
X170872698Y-97906673D01*
X170639309Y-97810000D01*
X169798750Y-97810000D01*
X169640000Y-97968750D01*
X169386000Y-97968750D01*
X169227250Y-97810000D01*
X168386691Y-97810000D01*
X168153302Y-97906673D01*
X168078000Y-97981975D01*
X168078000Y-95416440D01*
X168118000Y-95416440D01*
X168353317Y-95372162D01*
X168569441Y-95233090D01*
X168714431Y-95020890D01*
X168765440Y-94769000D01*
X168765440Y-94219000D01*
X168741056Y-94089411D01*
X168765440Y-93969000D01*
X168765440Y-93419000D01*
X168741056Y-93289411D01*
X168765440Y-93169000D01*
X168765440Y-92619000D01*
X168741056Y-92489411D01*
X168765440Y-92369000D01*
X168765440Y-92054000D01*
X172259198Y-92054000D01*
X174799000Y-94593802D01*
G36*
X187342658Y-80213460D02*
X185356500Y-80213460D01*
X185121183Y-80257738D01*
X184905059Y-80396810D01*
X184760069Y-80609010D01*
X184709060Y-80860900D01*
X184709060Y-82588100D01*
X184753338Y-82823417D01*
X184892410Y-83039541D01*
X185104610Y-83184531D01*
X185199427Y-83203732D01*
X185021768Y-83362464D01*
X184767791Y-83889709D01*
X184765142Y-83905474D01*
X184886283Y-84137500D01*
X186245500Y-84137500D01*
X186245500Y-84117500D01*
X186499500Y-84117500D01*
X186499500Y-84137500D01*
X186519500Y-84137500D01*
X186519500Y-84391500D01*
X186499500Y-84391500D01*
X186499500Y-84411500D01*
X186245500Y-84411500D01*
X186245500Y-84391500D01*
X184886283Y-84391500D01*
X184765142Y-84623526D01*
X184767791Y-84639291D01*
X185021768Y-85166536D01*
X185437569Y-85538039D01*
X185312146Y-85621844D01*
X183798401Y-84108099D01*
X183551839Y-83943352D01*
X183261000Y-83885500D01*
X178616463Y-83885500D01*
X178584327Y-83853308D01*
X178240799Y-83710662D01*
X177868833Y-83710338D01*
X177525057Y-83852383D01*
X177261808Y-84115173D01*
X177119162Y-84458701D01*
X177118838Y-84830667D01*
X177260883Y-85174443D01*
X177523673Y-85437692D01*
X177867201Y-85580338D01*
X178239167Y-85580662D01*
X178582943Y-85438617D01*
X178616118Y-85405500D01*
X182946198Y-85405500D01*
X184774560Y-87233862D01*
X184803229Y-87377989D01*
X185128085Y-87864170D01*
X185614266Y-88189026D01*
X186187755Y-88303100D01*
X186557245Y-88303100D01*
X187130734Y-88189026D01*
X187616915Y-87864170D01*
X187941771Y-87377989D01*
X188055845Y-86804500D01*
X187941771Y-86231011D01*
X187616915Y-85744830D01*
X187307431Y-85538039D01*
X187723232Y-85166536D01*
X187823295Y-84958809D01*
X187930599Y-85119401D01*
X189256477Y-86445279D01*
X189197655Y-86741000D01*
X189298619Y-87248579D01*
X187708698Y-88838500D01*
X182045352Y-88838500D01*
X181949827Y-88742808D01*
X181606299Y-88600162D01*
X181234333Y-88599838D01*
X180890557Y-88741883D01*
X180627308Y-89004673D01*
X180484662Y-89348201D01*
X180484338Y-89720167D01*
X180626383Y-90063943D01*
X180889173Y-90327192D01*
X181232701Y-90469838D01*
X181604667Y-90470162D01*
X181874910Y-90358500D01*
X188023500Y-90358500D01*
X188314339Y-90300648D01*
X188560901Y-90135901D01*
X189233848Y-89462954D01*
X189311729Y-89854489D01*
X189636585Y-90340670D01*
X189951366Y-90551000D01*
X189636585Y-90761330D01*
X189311729Y-91247511D01*
X189197655Y-91821000D01*
X189311729Y-92394489D01*
X189636585Y-92880670D01*
X189951366Y-93091000D01*
X189636585Y-93301330D01*
X189311729Y-93787511D01*
X189197655Y-94361000D01*
X189311729Y-94934489D01*
X189636585Y-95420670D01*
X190122766Y-95745526D01*
X190696255Y-95859600D01*
X191065745Y-95859600D01*
X191265137Y-95819939D01*
X192026000Y-96580802D01*
X192026000Y-104206198D01*
X189931198Y-106301000D01*
X185413302Y-106301000D01*
X185856991Y-105857311D01*
X186182000Y-105921959D01*
X186755489Y-105807885D01*
X187241670Y-105483029D01*
X187452000Y-105168248D01*
X187662330Y-105483029D01*
X188148511Y-105807885D01*
X188722000Y-105921959D01*
X189295489Y-105807885D01*
X189781670Y-105483029D01*
X190106526Y-104996848D01*
X190220600Y-104423359D01*
X190220600Y-104364641D01*
X190106526Y-103791152D01*
X189781670Y-103304971D01*
X189510839Y-103124008D01*
X189928821Y-102742490D01*
X190176968Y-102213027D01*
X190056469Y-101981000D01*
X188849000Y-101981000D01*
X188849000Y-102001000D01*
X188595000Y-102001000D01*
X188595000Y-101981000D01*
X188575000Y-101981000D01*
X188575000Y-101727000D01*
X188595000Y-101727000D01*
X188595000Y-100520183D01*
X188849000Y-100520183D01*
X188849000Y-101727000D01*
X190056469Y-101727000D01*
X190176968Y-101494973D01*
X189928821Y-100965510D01*
X189496947Y-100571312D01*
X189081026Y-100399042D01*
X188849000Y-100520183D01*
X188595000Y-100520183D01*
X188362974Y-100399042D01*
X187947053Y-100571312D01*
X187515179Y-100965510D01*
X187457664Y-101088228D01*
X187241670Y-100764971D01*
X186755489Y-100440115D01*
X186182000Y-100326041D01*
X185608511Y-100440115D01*
X185122330Y-100764971D01*
X184912000Y-101079752D01*
X184701670Y-100764971D01*
X184402000Y-100564738D01*
X184402000Y-99241463D01*
X184434192Y-99209327D01*
X184576838Y-98865799D01*
X184577162Y-98493833D01*
X184435117Y-98150057D01*
X184172327Y-97886808D01*
X183828799Y-97744162D01*
X183456833Y-97743838D01*
X183113057Y-97885883D01*
X183056440Y-97942401D01*
X183056440Y-95965000D01*
X183012162Y-95729683D01*
X182873090Y-95513559D01*
X182660890Y-95368569D01*
X182409000Y-95317560D01*
X181409000Y-95317560D01*
X181399000Y-95319442D01*
X181399000Y-93644000D01*
X181341148Y-93353161D01*
X181341148Y-93353160D01*
X181176401Y-93106599D01*
X176426401Y-88356599D01*
X176179839Y-88191852D01*
X175889000Y-88134000D01*
X174845859Y-88134000D01*
X174924838Y-87943799D01*
X174925162Y-87571833D01*
X174783117Y-87228057D01*
X174520327Y-86964808D01*
X174176799Y-86822162D01*
X174087916Y-86822085D01*
X173967839Y-86741852D01*
X173677000Y-86684000D01*
X169821501Y-86684000D01*
X169835839Y-86681148D01*
X170082401Y-86516401D01*
X171352401Y-85246401D01*
X171517148Y-84999840D01*
X171575000Y-84709000D01*
X171575000Y-80007302D01*
X172272802Y-79309500D01*
X186438698Y-79309500D01*
X187342658Y-80213460D01*
X187342658Y-80213460D01*
G37*
X187342658Y-80213460D02*
X185356500Y-80213460D01*
X185121183Y-80257738D01*
X184905059Y-80396810D01*
X184760069Y-80609010D01*
X184709060Y-80860900D01*
X184709060Y-82588100D01*
X184753338Y-82823417D01*
X184892410Y-83039541D01*
X185104610Y-83184531D01*
X185199427Y-83203732D01*
X185021768Y-83362464D01*
X184767791Y-83889709D01*
X184765142Y-83905474D01*
X184886283Y-84137500D01*
X186245500Y-84137500D01*
X186245500Y-84117500D01*
X186499500Y-84117500D01*
X186499500Y-84137500D01*
X186519500Y-84137500D01*
X186519500Y-84391500D01*
X186499500Y-84391500D01*
X186499500Y-84411500D01*
X186245500Y-84411500D01*
X186245500Y-84391500D01*
X184886283Y-84391500D01*
X184765142Y-84623526D01*
X184767791Y-84639291D01*
X185021768Y-85166536D01*
X185437569Y-85538039D01*
X185312146Y-85621844D01*
X183798401Y-84108099D01*
X183551839Y-83943352D01*
X183261000Y-83885500D01*
X178616463Y-83885500D01*
X178584327Y-83853308D01*
X178240799Y-83710662D01*
X177868833Y-83710338D01*
X177525057Y-83852383D01*
X177261808Y-84115173D01*
X177119162Y-84458701D01*
X177118838Y-84830667D01*
X177260883Y-85174443D01*
X177523673Y-85437692D01*
X177867201Y-85580338D01*
X178239167Y-85580662D01*
X178582943Y-85438617D01*
X178616118Y-85405500D01*
X182946198Y-85405500D01*
X184774560Y-87233862D01*
X184803229Y-87377989D01*
X185128085Y-87864170D01*
X185614266Y-88189026D01*
X186187755Y-88303100D01*
X186557245Y-88303100D01*
X187130734Y-88189026D01*
X187616915Y-87864170D01*
X187941771Y-87377989D01*
X188055845Y-86804500D01*
X187941771Y-86231011D01*
X187616915Y-85744830D01*
X187307431Y-85538039D01*
X187723232Y-85166536D01*
X187823295Y-84958809D01*
X187930599Y-85119401D01*
X189256477Y-86445279D01*
X189197655Y-86741000D01*
X189298619Y-87248579D01*
X187708698Y-88838500D01*
X182045352Y-88838500D01*
X181949827Y-88742808D01*
X181606299Y-88600162D01*
X181234333Y-88599838D01*
X180890557Y-88741883D01*
X180627308Y-89004673D01*
X180484662Y-89348201D01*
X180484338Y-89720167D01*
X180626383Y-90063943D01*
X180889173Y-90327192D01*
X181232701Y-90469838D01*
X181604667Y-90470162D01*
X181874910Y-90358500D01*
X188023500Y-90358500D01*
X188314339Y-90300648D01*
X188560901Y-90135901D01*
X189233848Y-89462954D01*
X189311729Y-89854489D01*
X189636585Y-90340670D01*
X189951366Y-90551000D01*
X189636585Y-90761330D01*
X189311729Y-91247511D01*
X189197655Y-91821000D01*
X189311729Y-92394489D01*
X189636585Y-92880670D01*
X189951366Y-93091000D01*
X189636585Y-93301330D01*
X189311729Y-93787511D01*
X189197655Y-94361000D01*
X189311729Y-94934489D01*
X189636585Y-95420670D01*
X190122766Y-95745526D01*
X190696255Y-95859600D01*
X191065745Y-95859600D01*
X191265137Y-95819939D01*
X192026000Y-96580802D01*
X192026000Y-104206198D01*
X189931198Y-106301000D01*
X185413302Y-106301000D01*
X185856991Y-105857311D01*
X186182000Y-105921959D01*
X186755489Y-105807885D01*
X187241670Y-105483029D01*
X187452000Y-105168248D01*
X187662330Y-105483029D01*
X188148511Y-105807885D01*
X188722000Y-105921959D01*
X189295489Y-105807885D01*
X189781670Y-105483029D01*
X190106526Y-104996848D01*
X190220600Y-104423359D01*
X190220600Y-104364641D01*
X190106526Y-103791152D01*
X189781670Y-103304971D01*
X189510839Y-103124008D01*
X189928821Y-102742490D01*
X190176968Y-102213027D01*
X190056469Y-101981000D01*
X188849000Y-101981000D01*
X188849000Y-102001000D01*
X188595000Y-102001000D01*
X188595000Y-101981000D01*
X188575000Y-101981000D01*
X188575000Y-101727000D01*
X188595000Y-101727000D01*
X188595000Y-100520183D01*
X188849000Y-100520183D01*
X188849000Y-101727000D01*
X190056469Y-101727000D01*
X190176968Y-101494973D01*
X189928821Y-100965510D01*
X189496947Y-100571312D01*
X189081026Y-100399042D01*
X188849000Y-100520183D01*
X188595000Y-100520183D01*
X188362974Y-100399042D01*
X187947053Y-100571312D01*
X187515179Y-100965510D01*
X187457664Y-101088228D01*
X187241670Y-100764971D01*
X186755489Y-100440115D01*
X186182000Y-100326041D01*
X185608511Y-100440115D01*
X185122330Y-100764971D01*
X184912000Y-101079752D01*
X184701670Y-100764971D01*
X184402000Y-100564738D01*
X184402000Y-99241463D01*
X184434192Y-99209327D01*
X184576838Y-98865799D01*
X184577162Y-98493833D01*
X184435117Y-98150057D01*
X184172327Y-97886808D01*
X183828799Y-97744162D01*
X183456833Y-97743838D01*
X183113057Y-97885883D01*
X183056440Y-97942401D01*
X183056440Y-95965000D01*
X183012162Y-95729683D01*
X182873090Y-95513559D01*
X182660890Y-95368569D01*
X182409000Y-95317560D01*
X181409000Y-95317560D01*
X181399000Y-95319442D01*
X181399000Y-93644000D01*
X181341148Y-93353161D01*
X181341148Y-93353160D01*
X181176401Y-93106599D01*
X176426401Y-88356599D01*
X176179839Y-88191852D01*
X175889000Y-88134000D01*
X174845859Y-88134000D01*
X174924838Y-87943799D01*
X174925162Y-87571833D01*
X174783117Y-87228057D01*
X174520327Y-86964808D01*
X174176799Y-86822162D01*
X174087916Y-86822085D01*
X173967839Y-86741852D01*
X173677000Y-86684000D01*
X169821501Y-86684000D01*
X169835839Y-86681148D01*
X170082401Y-86516401D01*
X171352401Y-85246401D01*
X171517148Y-84999840D01*
X171575000Y-84709000D01*
X171575000Y-80007302D01*
X172272802Y-79309500D01*
X186438698Y-79309500D01*
X187342658Y-80213460D01*
G36*
X192965000Y-95370198D02*
X192463381Y-94868579D01*
X192564345Y-94361000D01*
X192450271Y-93787511D01*
X192125415Y-93301330D01*
X191810634Y-93091000D01*
X192125415Y-92880670D01*
X192450271Y-92394489D01*
X192564345Y-91821000D01*
X192450271Y-91247511D01*
X192125415Y-90761330D01*
X191810634Y-90551000D01*
X192125415Y-90340670D01*
X192450271Y-89854489D01*
X192564345Y-89281000D01*
X192450271Y-88707511D01*
X192125415Y-88221330D01*
X191810634Y-88011000D01*
X192125415Y-87800670D01*
X192450271Y-87314489D01*
X192564345Y-86741000D01*
X192450271Y-86167511D01*
X192125415Y-85681330D01*
X191815931Y-85474539D01*
X192231732Y-85103036D01*
X192485709Y-84575791D01*
X192488358Y-84560026D01*
X192367217Y-84328000D01*
X191008000Y-84328000D01*
X191008000Y-84348000D01*
X190754000Y-84348000D01*
X190754000Y-84328000D01*
X189394783Y-84328000D01*
X189358430Y-84397628D01*
X189228000Y-84267198D01*
X189228000Y-81946750D01*
X189230000Y-81946750D01*
X189230000Y-82650910D01*
X189326673Y-82884299D01*
X189505302Y-83062927D01*
X189702861Y-83144759D01*
X189530268Y-83298964D01*
X189276291Y-83826209D01*
X189273642Y-83841974D01*
X189394783Y-84074000D01*
X190754000Y-84074000D01*
X190754000Y-81788000D01*
X191008000Y-81788000D01*
X191008000Y-84074000D01*
X192367217Y-84074000D01*
X192488358Y-83841974D01*
X192485709Y-83826209D01*
X192231732Y-83298964D01*
X192059139Y-83144759D01*
X192256698Y-83062927D01*
X192435327Y-82884299D01*
X192532000Y-82650910D01*
X192532000Y-81946750D01*
X192373250Y-81788000D01*
X191008000Y-81788000D01*
X190754000Y-81788000D01*
X189388750Y-81788000D01*
X189230000Y-81946750D01*
X189228000Y-81946750D01*
X189228000Y-80671090D01*
X189230000Y-80671090D01*
X189230000Y-81375250D01*
X189388750Y-81534000D01*
X190754000Y-81534000D01*
X190754000Y-80321150D01*
X191008000Y-80321150D01*
X191008000Y-81534000D01*
X192373250Y-81534000D01*
X192532000Y-81375250D01*
X192532000Y-80671090D01*
X192435327Y-80437701D01*
X192256698Y-80259073D01*
X192023309Y-80162400D01*
X191166750Y-80162400D01*
X191008000Y-80321150D01*
X190754000Y-80321150D01*
X190595250Y-80162400D01*
X189738691Y-80162400D01*
X189505302Y-80259073D01*
X189326673Y-80437701D01*
X189230000Y-80671090D01*
X189228000Y-80671090D01*
X189228000Y-80264000D01*
X189170148Y-79973161D01*
X189005401Y-79726599D01*
X187585802Y-78307000D01*
X192965000Y-78307000D01*
X192965000Y-95370198D01*
X192965000Y-95370198D01*
G37*
X192965000Y-95370198D02*
X192463381Y-94868579D01*
X192564345Y-94361000D01*
X192450271Y-93787511D01*
X192125415Y-93301330D01*
X191810634Y-93091000D01*
X192125415Y-92880670D01*
X192450271Y-92394489D01*
X192564345Y-91821000D01*
X192450271Y-91247511D01*
X192125415Y-90761330D01*
X191810634Y-90551000D01*
X192125415Y-90340670D01*
X192450271Y-89854489D01*
X192564345Y-89281000D01*
X192450271Y-88707511D01*
X192125415Y-88221330D01*
X191810634Y-88011000D01*
X192125415Y-87800670D01*
X192450271Y-87314489D01*
X192564345Y-86741000D01*
X192450271Y-86167511D01*
X192125415Y-85681330D01*
X191815931Y-85474539D01*
X192231732Y-85103036D01*
X192485709Y-84575791D01*
X192488358Y-84560026D01*
X192367217Y-84328000D01*
X191008000Y-84328000D01*
X191008000Y-84348000D01*
X190754000Y-84348000D01*
X190754000Y-84328000D01*
X189394783Y-84328000D01*
X189358430Y-84397628D01*
X189228000Y-84267198D01*
X189228000Y-81946750D01*
X189230000Y-81946750D01*
X189230000Y-82650910D01*
X189326673Y-82884299D01*
X189505302Y-83062927D01*
X189702861Y-83144759D01*
X189530268Y-83298964D01*
X189276291Y-83826209D01*
X189273642Y-83841974D01*
X189394783Y-84074000D01*
X190754000Y-84074000D01*
X190754000Y-81788000D01*
X191008000Y-81788000D01*
X191008000Y-84074000D01*
X192367217Y-84074000D01*
X192488358Y-83841974D01*
X192485709Y-83826209D01*
X192231732Y-83298964D01*
X192059139Y-83144759D01*
X192256698Y-83062927D01*
X192435327Y-82884299D01*
X192532000Y-82650910D01*
X192532000Y-81946750D01*
X192373250Y-81788000D01*
X191008000Y-81788000D01*
X190754000Y-81788000D01*
X189388750Y-81788000D01*
X189230000Y-81946750D01*
X189228000Y-81946750D01*
X189228000Y-80671090D01*
X189230000Y-80671090D01*
X189230000Y-81375250D01*
X189388750Y-81534000D01*
X190754000Y-81534000D01*
X190754000Y-80321150D01*
X191008000Y-80321150D01*
X191008000Y-81534000D01*
X192373250Y-81534000D01*
X192532000Y-81375250D01*
X192532000Y-80671090D01*
X192435327Y-80437701D01*
X192256698Y-80259073D01*
X192023309Y-80162400D01*
X191166750Y-80162400D01*
X191008000Y-80321150D01*
X190754000Y-80321150D01*
X190595250Y-80162400D01*
X189738691Y-80162400D01*
X189505302Y-80259073D01*
X189326673Y-80437701D01*
X189230000Y-80671090D01*
X189228000Y-80671090D01*
X189228000Y-80264000D01*
X189170148Y-79973161D01*
X189005401Y-79726599D01*
X187585802Y-78307000D01*
X192965000Y-78307000D01*
X192965000Y-95370198D01*
G36*
X162728910Y-88695441D02*
X162859245Y-88784495D01*
X162953750Y-88879000D01*
X163069310Y-88879000D01*
X163089753Y-88870532D01*
X163193000Y-88891440D01*
X163743000Y-88891440D01*
X163872589Y-88867056D01*
X163993000Y-88891440D01*
X164308000Y-88891440D01*
X164308000Y-92300198D01*
X163730599Y-92877599D01*
X163565852Y-93124161D01*
X163508000Y-93415000D01*
X163508000Y-94729025D01*
X163468116Y-94787397D01*
X163407090Y-94692559D01*
X163276755Y-94603505D01*
X163182250Y-94509000D01*
X163066690Y-94509000D01*
X163046247Y-94517468D01*
X162943000Y-94496560D01*
X162393000Y-94496560D01*
X162287295Y-94516450D01*
X162269310Y-94509000D01*
X162153750Y-94509000D01*
X162057349Y-94605401D01*
X161941559Y-94679910D01*
X161868116Y-94787397D01*
X161807090Y-94692559D01*
X161676755Y-94603505D01*
X161582250Y-94509000D01*
X161466690Y-94509000D01*
X161446247Y-94517468D01*
X161343000Y-94496560D01*
X161206539Y-94496560D01*
X161447192Y-94256327D01*
X161589838Y-93912799D01*
X161589914Y-93825512D01*
X161755443Y-93757117D01*
X162018692Y-93494327D01*
X162161338Y-93150799D01*
X162161658Y-92783174D01*
X162263443Y-92741117D01*
X162526692Y-92478327D01*
X162669338Y-92134799D01*
X162669662Y-91762833D01*
X162527617Y-91419057D01*
X162358235Y-91249379D01*
X162590192Y-91017827D01*
X162732838Y-90674299D01*
X162733162Y-90302333D01*
X162591117Y-89958557D01*
X162328327Y-89695308D01*
X161984799Y-89552662D01*
X161612833Y-89552338D01*
X161269057Y-89694383D01*
X161229371Y-89734000D01*
X160265440Y-89734000D01*
X160265440Y-89419000D01*
X160241056Y-89289411D01*
X160265440Y-89169000D01*
X160265440Y-88891440D01*
X160543000Y-88891440D01*
X160672589Y-88867056D01*
X160793000Y-88891440D01*
X161343000Y-88891440D01*
X161472589Y-88867056D01*
X161593000Y-88891440D01*
X162143000Y-88891440D01*
X162248705Y-88871550D01*
X162266690Y-88879000D01*
X162382250Y-88879000D01*
X162478651Y-88782599D01*
X162594441Y-88708090D01*
X162667884Y-88600603D01*
X162728910Y-88695441D01*
X162728910Y-88695441D01*
G37*
X162728910Y-88695441D02*
X162859245Y-88784495D01*
X162953750Y-88879000D01*
X163069310Y-88879000D01*
X163089753Y-88870532D01*
X163193000Y-88891440D01*
X163743000Y-88891440D01*
X163872589Y-88867056D01*
X163993000Y-88891440D01*
X164308000Y-88891440D01*
X164308000Y-92300198D01*
X163730599Y-92877599D01*
X163565852Y-93124161D01*
X163508000Y-93415000D01*
X163508000Y-94729025D01*
X163468116Y-94787397D01*
X163407090Y-94692559D01*
X163276755Y-94603505D01*
X163182250Y-94509000D01*
X163066690Y-94509000D01*
X163046247Y-94517468D01*
X162943000Y-94496560D01*
X162393000Y-94496560D01*
X162287295Y-94516450D01*
X162269310Y-94509000D01*
X162153750Y-94509000D01*
X162057349Y-94605401D01*
X161941559Y-94679910D01*
X161868116Y-94787397D01*
X161807090Y-94692559D01*
X161676755Y-94603505D01*
X161582250Y-94509000D01*
X161466690Y-94509000D01*
X161446247Y-94517468D01*
X161343000Y-94496560D01*
X161206539Y-94496560D01*
X161447192Y-94256327D01*
X161589838Y-93912799D01*
X161589914Y-93825512D01*
X161755443Y-93757117D01*
X162018692Y-93494327D01*
X162161338Y-93150799D01*
X162161658Y-92783174D01*
X162263443Y-92741117D01*
X162526692Y-92478327D01*
X162669338Y-92134799D01*
X162669662Y-91762833D01*
X162527617Y-91419057D01*
X162358235Y-91249379D01*
X162590192Y-91017827D01*
X162732838Y-90674299D01*
X162733162Y-90302333D01*
X162591117Y-89958557D01*
X162328327Y-89695308D01*
X161984799Y-89552662D01*
X161612833Y-89552338D01*
X161269057Y-89694383D01*
X161229371Y-89734000D01*
X160265440Y-89734000D01*
X160265440Y-89419000D01*
X160241056Y-89289411D01*
X160265440Y-89169000D01*
X160265440Y-88891440D01*
X160543000Y-88891440D01*
X160672589Y-88867056D01*
X160793000Y-88891440D01*
X161343000Y-88891440D01*
X161472589Y-88867056D01*
X161593000Y-88891440D01*
X162143000Y-88891440D01*
X162248705Y-88871550D01*
X162266690Y-88879000D01*
X162382250Y-88879000D01*
X162478651Y-88782599D01*
X162594441Y-88708090D01*
X162667884Y-88600603D01*
X162728910Y-88695441D01*
G36*
X147671599Y-89056401D02*
X147918160Y-89221148D01*
X147966414Y-89230746D01*
X148007581Y-89238935D01*
X148234585Y-89578670D01*
X148544069Y-89785461D01*
X148128268Y-90156964D01*
X147874291Y-90684209D01*
X147871642Y-90699974D01*
X147992783Y-90932000D01*
X149352000Y-90932000D01*
X149352000Y-90912000D01*
X149606000Y-90912000D01*
X149606000Y-90932000D01*
X149626000Y-90932000D01*
X149626000Y-91186000D01*
X149606000Y-91186000D01*
X149606000Y-91206000D01*
X149352000Y-91206000D01*
X149352000Y-91186000D01*
X147992783Y-91186000D01*
X147871642Y-91418026D01*
X147874291Y-91433791D01*
X148128268Y-91961036D01*
X148544069Y-92332539D01*
X148234585Y-92539330D01*
X148034352Y-92839000D01*
X147113648Y-92839000D01*
X146913415Y-92539330D01*
X146603931Y-92332539D01*
X147019732Y-91961036D01*
X147273709Y-91433791D01*
X147276358Y-91418026D01*
X147155217Y-91186000D01*
X145796000Y-91186000D01*
X145796000Y-91206000D01*
X145542000Y-91206000D01*
X145542000Y-91186000D01*
X145522000Y-91186000D01*
X145522000Y-90932000D01*
X145542000Y-90932000D01*
X145542000Y-90912000D01*
X145796000Y-90912000D01*
X145796000Y-90932000D01*
X147155217Y-90932000D01*
X147276358Y-90699974D01*
X147273709Y-90684209D01*
X147019732Y-90156964D01*
X146603931Y-89785461D01*
X146913415Y-89578670D01*
X147238271Y-89092489D01*
X147316152Y-88700954D01*
X147671599Y-89056401D01*
X147671599Y-89056401D01*
G37*
X147671599Y-89056401D02*
X147918160Y-89221148D01*
X147966414Y-89230746D01*
X148007581Y-89238935D01*
X148234585Y-89578670D01*
X148544069Y-89785461D01*
X148128268Y-90156964D01*
X147874291Y-90684209D01*
X147871642Y-90699974D01*
X147992783Y-90932000D01*
X149352000Y-90932000D01*
X149352000Y-90912000D01*
X149606000Y-90912000D01*
X149606000Y-90932000D01*
X149626000Y-90932000D01*
X149626000Y-91186000D01*
X149606000Y-91186000D01*
X149606000Y-91206000D01*
X149352000Y-91206000D01*
X149352000Y-91186000D01*
X147992783Y-91186000D01*
X147871642Y-91418026D01*
X147874291Y-91433791D01*
X148128268Y-91961036D01*
X148544069Y-92332539D01*
X148234585Y-92539330D01*
X148034352Y-92839000D01*
X147113648Y-92839000D01*
X146913415Y-92539330D01*
X146603931Y-92332539D01*
X147019732Y-91961036D01*
X147273709Y-91433791D01*
X147276358Y-91418026D01*
X147155217Y-91186000D01*
X145796000Y-91186000D01*
X145796000Y-91206000D01*
X145542000Y-91206000D01*
X145542000Y-91186000D01*
X145522000Y-91186000D01*
X145522000Y-90932000D01*
X145542000Y-90932000D01*
X145542000Y-90912000D01*
X145796000Y-90912000D01*
X145796000Y-90932000D01*
X147155217Y-90932000D01*
X147276358Y-90699974D01*
X147273709Y-90684209D01*
X147019732Y-90156964D01*
X146603931Y-89785461D01*
X146913415Y-89578670D01*
X147238271Y-89092489D01*
X147316152Y-88700954D01*
X147671599Y-89056401D01*
G36*
X161037138Y-78521560D02*
X159214500Y-78521560D01*
X158979183Y-78565838D01*
X158763059Y-78704910D01*
X158618069Y-78917110D01*
X158567060Y-79169000D01*
X158567060Y-79409000D01*
X156403040Y-79409000D01*
X156403040Y-79141000D01*
X156358762Y-78905683D01*
X156219690Y-78689559D01*
X156007490Y-78544569D01*
X155755600Y-78493560D01*
X153755600Y-78493560D01*
X153520283Y-78537838D01*
X153304159Y-78676910D01*
X153159169Y-78889110D01*
X153108160Y-79141000D01*
X153108160Y-80977016D01*
X152970352Y-81183261D01*
X152912500Y-81474100D01*
X152912500Y-83181467D01*
X152821009Y-83240340D01*
X152676019Y-83452540D01*
X152625010Y-83704430D01*
X152625010Y-85505290D01*
X152652127Y-85649402D01*
X152395208Y-85905873D01*
X152252562Y-86249401D01*
X152252238Y-86621367D01*
X152394283Y-86965143D01*
X152657073Y-87228392D01*
X153000601Y-87371038D01*
X153372567Y-87371362D01*
X153587450Y-87282574D01*
X153587450Y-87321390D01*
X153746200Y-87480140D01*
X154495500Y-87480140D01*
X154495500Y-86230460D01*
X154396603Y-86131563D01*
X154414901Y-86039578D01*
X154523991Y-85969380D01*
X154623132Y-85824283D01*
X154708360Y-85956731D01*
X154812500Y-86027887D01*
X154812500Y-86167460D01*
X154749500Y-86230460D01*
X154749500Y-87480140D01*
X154769500Y-87480140D01*
X154769500Y-87734140D01*
X154749500Y-87734140D01*
X154749500Y-88983820D01*
X154908250Y-89142570D01*
X155010421Y-89142570D01*
X155035099Y-89179503D01*
X155589596Y-89734000D01*
X154308802Y-89734000D01*
X152467692Y-87892890D01*
X153587450Y-87892890D01*
X153587450Y-88633880D01*
X153684123Y-88867269D01*
X153862752Y-89045897D01*
X154096141Y-89142570D01*
X154336750Y-89142570D01*
X154495500Y-88983820D01*
X154495500Y-87734140D01*
X153746200Y-87734140D01*
X153587450Y-87892890D01*
X152467692Y-87892890D01*
X151142440Y-86567638D01*
X151142440Y-85115400D01*
X151098162Y-84880083D01*
X150959090Y-84663959D01*
X150746890Y-84518969D01*
X150495000Y-84467960D01*
X148463000Y-84467960D01*
X148227683Y-84512238D01*
X148011559Y-84651310D01*
X147866569Y-84863510D01*
X147815560Y-85115400D01*
X147815560Y-86842600D01*
X147859838Y-87077917D01*
X147890736Y-87125934D01*
X147332440Y-86567638D01*
X147332440Y-85115400D01*
X147288162Y-84880083D01*
X147149090Y-84663959D01*
X146936890Y-84518969D01*
X146685000Y-84467960D01*
X144653000Y-84467960D01*
X144417683Y-84512238D01*
X144347000Y-84557721D01*
X144347000Y-80658399D01*
X144517899Y-80658399D01*
X144781481Y-81296315D01*
X145269118Y-81784804D01*
X145906573Y-82049499D01*
X146596799Y-82050101D01*
X147234715Y-81786519D01*
X147723204Y-81298882D01*
X147981536Y-80676750D01*
X149120600Y-80676750D01*
X149120600Y-81767310D01*
X149217273Y-82000699D01*
X149395902Y-82179327D01*
X149629291Y-82276000D01*
X150469850Y-82276000D01*
X150628600Y-82117250D01*
X150628600Y-80518000D01*
X150882600Y-80518000D01*
X150882600Y-82117250D01*
X151041350Y-82276000D01*
X151881909Y-82276000D01*
X152115298Y-82179327D01*
X152293927Y-82000699D01*
X152390600Y-81767310D01*
X152390600Y-80676750D01*
X152231850Y-80518000D01*
X150882600Y-80518000D01*
X150628600Y-80518000D01*
X149279350Y-80518000D01*
X149120600Y-80676750D01*
X147981536Y-80676750D01*
X147987899Y-80661427D01*
X147988501Y-79971201D01*
X147724919Y-79333285D01*
X147406880Y-79014690D01*
X149120600Y-79014690D01*
X149120600Y-80105250D01*
X149279350Y-80264000D01*
X150628600Y-80264000D01*
X150628600Y-78664750D01*
X150882600Y-78664750D01*
X150882600Y-80264000D01*
X152231850Y-80264000D01*
X152390600Y-80105250D01*
X152390600Y-79014690D01*
X152293927Y-78781301D01*
X152115298Y-78602673D01*
X151881909Y-78506000D01*
X151041350Y-78506000D01*
X150882600Y-78664750D01*
X150628600Y-78664750D01*
X150469850Y-78506000D01*
X149629291Y-78506000D01*
X149395902Y-78602673D01*
X149217273Y-78781301D01*
X149120600Y-79014690D01*
X147406880Y-79014690D01*
X147237282Y-78844796D01*
X146599827Y-78580101D01*
X145909601Y-78579499D01*
X145271685Y-78843081D01*
X144783196Y-79330718D01*
X144518501Y-79968173D01*
X144517899Y-80658399D01*
X144347000Y-80658399D01*
X144347000Y-78307000D01*
X161251698Y-78307000D01*
X161037138Y-78521560D01*
X161037138Y-78521560D01*
G37*
X161037138Y-78521560D02*
X159214500Y-78521560D01*
X158979183Y-78565838D01*
X158763059Y-78704910D01*
X158618069Y-78917110D01*
X158567060Y-79169000D01*
X158567060Y-79409000D01*
X156403040Y-79409000D01*
X156403040Y-79141000D01*
X156358762Y-78905683D01*
X156219690Y-78689559D01*
X156007490Y-78544569D01*
X155755600Y-78493560D01*
X153755600Y-78493560D01*
X153520283Y-78537838D01*
X153304159Y-78676910D01*
X153159169Y-78889110D01*
X153108160Y-79141000D01*
X153108160Y-80977016D01*
X152970352Y-81183261D01*
X152912500Y-81474100D01*
X152912500Y-83181467D01*
X152821009Y-83240340D01*
X152676019Y-83452540D01*
X152625010Y-83704430D01*
X152625010Y-85505290D01*
X152652127Y-85649402D01*
X152395208Y-85905873D01*
X152252562Y-86249401D01*
X152252238Y-86621367D01*
X152394283Y-86965143D01*
X152657073Y-87228392D01*
X153000601Y-87371038D01*
X153372567Y-87371362D01*
X153587450Y-87282574D01*
X153587450Y-87321390D01*
X153746200Y-87480140D01*
X154495500Y-87480140D01*
X154495500Y-86230460D01*
X154396603Y-86131563D01*
X154414901Y-86039578D01*
X154523991Y-85969380D01*
X154623132Y-85824283D01*
X154708360Y-85956731D01*
X154812500Y-86027887D01*
X154812500Y-86167460D01*
X154749500Y-86230460D01*
X154749500Y-87480140D01*
X154769500Y-87480140D01*
X154769500Y-87734140D01*
X154749500Y-87734140D01*
X154749500Y-88983820D01*
X154908250Y-89142570D01*
X155010421Y-89142570D01*
X155035099Y-89179503D01*
X155589596Y-89734000D01*
X154308802Y-89734000D01*
X152467692Y-87892890D01*
X153587450Y-87892890D01*
X153587450Y-88633880D01*
X153684123Y-88867269D01*
X153862752Y-89045897D01*
X154096141Y-89142570D01*
X154336750Y-89142570D01*
X154495500Y-88983820D01*
X154495500Y-87734140D01*
X153746200Y-87734140D01*
X153587450Y-87892890D01*
X152467692Y-87892890D01*
X151142440Y-86567638D01*
X151142440Y-85115400D01*
X151098162Y-84880083D01*
X150959090Y-84663959D01*
X150746890Y-84518969D01*
X150495000Y-84467960D01*
X148463000Y-84467960D01*
X148227683Y-84512238D01*
X148011559Y-84651310D01*
X147866569Y-84863510D01*
X147815560Y-85115400D01*
X147815560Y-86842600D01*
X147859838Y-87077917D01*
X147890736Y-87125934D01*
X147332440Y-86567638D01*
X147332440Y-85115400D01*
X147288162Y-84880083D01*
X147149090Y-84663959D01*
X146936890Y-84518969D01*
X146685000Y-84467960D01*
X144653000Y-84467960D01*
X144417683Y-84512238D01*
X144347000Y-84557721D01*
X144347000Y-80658399D01*
X144517899Y-80658399D01*
X144781481Y-81296315D01*
X145269118Y-81784804D01*
X145906573Y-82049499D01*
X146596799Y-82050101D01*
X147234715Y-81786519D01*
X147723204Y-81298882D01*
X147981536Y-80676750D01*
X149120600Y-80676750D01*
X149120600Y-81767310D01*
X149217273Y-82000699D01*
X149395902Y-82179327D01*
X149629291Y-82276000D01*
X150469850Y-82276000D01*
X150628600Y-82117250D01*
X150628600Y-80518000D01*
X150882600Y-80518000D01*
X150882600Y-82117250D01*
X151041350Y-82276000D01*
X151881909Y-82276000D01*
X152115298Y-82179327D01*
X152293927Y-82000699D01*
X152390600Y-81767310D01*
X152390600Y-80676750D01*
X152231850Y-80518000D01*
X150882600Y-80518000D01*
X150628600Y-80518000D01*
X149279350Y-80518000D01*
X149120600Y-80676750D01*
X147981536Y-80676750D01*
X147987899Y-80661427D01*
X147988501Y-79971201D01*
X147724919Y-79333285D01*
X147406880Y-79014690D01*
X149120600Y-79014690D01*
X149120600Y-80105250D01*
X149279350Y-80264000D01*
X150628600Y-80264000D01*
X150628600Y-78664750D01*
X150882600Y-78664750D01*
X150882600Y-80264000D01*
X152231850Y-80264000D01*
X152390600Y-80105250D01*
X152390600Y-79014690D01*
X152293927Y-78781301D01*
X152115298Y-78602673D01*
X151881909Y-78506000D01*
X151041350Y-78506000D01*
X150882600Y-78664750D01*
X150628600Y-78664750D01*
X150469850Y-78506000D01*
X149629291Y-78506000D01*
X149395902Y-78602673D01*
X149217273Y-78781301D01*
X149120600Y-79014690D01*
X147406880Y-79014690D01*
X147237282Y-78844796D01*
X146599827Y-78580101D01*
X145909601Y-78579499D01*
X145271685Y-78843081D01*
X144783196Y-79330718D01*
X144518501Y-79968173D01*
X144517899Y-80658399D01*
X144347000Y-80658399D01*
X144347000Y-78307000D01*
X161251698Y-78307000D01*
X161037138Y-78521560D01*
G36*
X165755000Y-79042691D02*
X165755000Y-79883250D01*
X165913750Y-80042000D01*
X167513000Y-80042000D01*
X167513000Y-80022000D01*
X167767000Y-80022000D01*
X167767000Y-80042000D01*
X169366250Y-80042000D01*
X169525000Y-79883250D01*
X169525000Y-79477302D01*
X170055000Y-80007302D01*
X170055000Y-84394198D01*
X169537440Y-84911758D01*
X169537440Y-83169000D01*
X169493162Y-82933683D01*
X169354090Y-82717559D01*
X169141890Y-82572569D01*
X168890000Y-82521560D01*
X166390000Y-82521560D01*
X166154683Y-82565838D01*
X165938559Y-82704910D01*
X165793569Y-82917110D01*
X165742560Y-83169000D01*
X165742560Y-83409000D01*
X165386000Y-83409000D01*
X165116468Y-83462614D01*
X165116742Y-83148339D01*
X164904510Y-82634697D01*
X164511870Y-82241371D01*
X163998600Y-82028243D01*
X163442839Y-82027758D01*
X162929197Y-82239990D01*
X162535871Y-82632630D01*
X162349500Y-83081462D01*
X162349500Y-83042691D01*
X162252827Y-82809302D01*
X162074199Y-82630673D01*
X161840810Y-82534000D01*
X160750250Y-82534000D01*
X160591500Y-82692750D01*
X160591500Y-84042000D01*
X162190750Y-84042000D01*
X162349500Y-83883250D01*
X162349500Y-83767592D01*
X162534490Y-84215303D01*
X162927130Y-84608629D01*
X163440400Y-84821757D01*
X163658251Y-84821947D01*
X162930599Y-85549599D01*
X162765852Y-85796161D01*
X162708000Y-86087000D01*
X162708000Y-86229025D01*
X162668116Y-86287397D01*
X162607090Y-86192559D01*
X162476755Y-86103505D01*
X162382250Y-86009000D01*
X162266690Y-86009000D01*
X162246247Y-86017468D01*
X162143000Y-85996560D01*
X161593000Y-85996560D01*
X161463411Y-86020944D01*
X161343000Y-85996560D01*
X160793000Y-85996560D01*
X160663411Y-86020944D01*
X160543000Y-85996560D01*
X159993000Y-85996560D01*
X159757683Y-86040838D01*
X159541559Y-86179910D01*
X159396569Y-86392110D01*
X159345560Y-86644000D01*
X159345560Y-86684000D01*
X156726200Y-86684000D01*
X156435361Y-86741852D01*
X156332500Y-86810581D01*
X156332500Y-86028253D01*
X156423991Y-85969380D01*
X156568981Y-85757180D01*
X156619990Y-85505290D01*
X156619990Y-84454750D01*
X158579500Y-84454750D01*
X158579500Y-85295309D01*
X158676173Y-85528698D01*
X158854801Y-85707327D01*
X159088190Y-85804000D01*
X160178750Y-85804000D01*
X160337500Y-85645250D01*
X160337500Y-84296000D01*
X160591500Y-84296000D01*
X160591500Y-85645250D01*
X160750250Y-85804000D01*
X161840810Y-85804000D01*
X162074199Y-85707327D01*
X162252827Y-85528698D01*
X162349500Y-85295309D01*
X162349500Y-84454750D01*
X162190750Y-84296000D01*
X160591500Y-84296000D01*
X160337500Y-84296000D01*
X158738250Y-84296000D01*
X158579500Y-84454750D01*
X156619990Y-84454750D01*
X156619990Y-83704430D01*
X156575712Y-83469113D01*
X156436640Y-83252989D01*
X156224440Y-83107999D01*
X155972550Y-83056990D01*
X155172450Y-83056990D01*
X154937133Y-83101268D01*
X154721009Y-83240340D01*
X154621868Y-83385437D01*
X154536640Y-83252989D01*
X154432500Y-83181833D01*
X154432500Y-83042691D01*
X158579500Y-83042691D01*
X158579500Y-83883250D01*
X158738250Y-84042000D01*
X160337500Y-84042000D01*
X160337500Y-82692750D01*
X160178750Y-82534000D01*
X159088190Y-82534000D01*
X158854801Y-82630673D01*
X158676173Y-82809302D01*
X158579500Y-83042691D01*
X154432500Y-83042691D01*
X154432500Y-82288440D01*
X155755600Y-82288440D01*
X155990917Y-82244162D01*
X156207041Y-82105090D01*
X156352031Y-81892890D01*
X156403040Y-81641000D01*
X156403040Y-80929000D01*
X158567060Y-80929000D01*
X158567060Y-81169000D01*
X158611338Y-81404317D01*
X158750410Y-81620441D01*
X158962610Y-81765431D01*
X159214500Y-81816440D01*
X161714500Y-81816440D01*
X161949817Y-81772162D01*
X162165941Y-81633090D01*
X162310931Y-81420890D01*
X162361940Y-81169000D01*
X162361940Y-80454750D01*
X165755000Y-80454750D01*
X165755000Y-81295309D01*
X165851673Y-81528698D01*
X166030301Y-81707327D01*
X166263690Y-81804000D01*
X167354250Y-81804000D01*
X167513000Y-81645250D01*
X167513000Y-80296000D01*
X167767000Y-80296000D01*
X167767000Y-81645250D01*
X167925750Y-81804000D01*
X169016310Y-81804000D01*
X169249699Y-81707327D01*
X169428327Y-81528698D01*
X169525000Y-81295309D01*
X169525000Y-80454750D01*
X169366250Y-80296000D01*
X167767000Y-80296000D01*
X167513000Y-80296000D01*
X165913750Y-80296000D01*
X165755000Y-80454750D01*
X162361940Y-80454750D01*
X162361940Y-79346362D01*
X162779802Y-78928500D01*
X165802300Y-78928500D01*
X165755000Y-79042691D01*
X165755000Y-79042691D01*
G37*
X165755000Y-79042691D02*
X165755000Y-79883250D01*
X165913750Y-80042000D01*
X167513000Y-80042000D01*
X167513000Y-80022000D01*
X167767000Y-80022000D01*
X167767000Y-80042000D01*
X169366250Y-80042000D01*
X169525000Y-79883250D01*
X169525000Y-79477302D01*
X170055000Y-80007302D01*
X170055000Y-84394198D01*
X169537440Y-84911758D01*
X169537440Y-83169000D01*
X169493162Y-82933683D01*
X169354090Y-82717559D01*
X169141890Y-82572569D01*
X168890000Y-82521560D01*
X166390000Y-82521560D01*
X166154683Y-82565838D01*
X165938559Y-82704910D01*
X165793569Y-82917110D01*
X165742560Y-83169000D01*
X165742560Y-83409000D01*
X165386000Y-83409000D01*
X165116468Y-83462614D01*
X165116742Y-83148339D01*
X164904510Y-82634697D01*
X164511870Y-82241371D01*
X163998600Y-82028243D01*
X163442839Y-82027758D01*
X162929197Y-82239990D01*
X162535871Y-82632630D01*
X162349500Y-83081462D01*
X162349500Y-83042691D01*
X162252827Y-82809302D01*
X162074199Y-82630673D01*
X161840810Y-82534000D01*
X160750250Y-82534000D01*
X160591500Y-82692750D01*
X160591500Y-84042000D01*
X162190750Y-84042000D01*
X162349500Y-83883250D01*
X162349500Y-83767592D01*
X162534490Y-84215303D01*
X162927130Y-84608629D01*
X163440400Y-84821757D01*
X163658251Y-84821947D01*
X162930599Y-85549599D01*
X162765852Y-85796161D01*
X162708000Y-86087000D01*
X162708000Y-86229025D01*
X162668116Y-86287397D01*
X162607090Y-86192559D01*
X162476755Y-86103505D01*
X162382250Y-86009000D01*
X162266690Y-86009000D01*
X162246247Y-86017468D01*
X162143000Y-85996560D01*
X161593000Y-85996560D01*
X161463411Y-86020944D01*
X161343000Y-85996560D01*
X160793000Y-85996560D01*
X160663411Y-86020944D01*
X160543000Y-85996560D01*
X159993000Y-85996560D01*
X159757683Y-86040838D01*
X159541559Y-86179910D01*
X159396569Y-86392110D01*
X159345560Y-86644000D01*
X159345560Y-86684000D01*
X156726200Y-86684000D01*
X156435361Y-86741852D01*
X156332500Y-86810581D01*
X156332500Y-86028253D01*
X156423991Y-85969380D01*
X156568981Y-85757180D01*
X156619990Y-85505290D01*
X156619990Y-84454750D01*
X158579500Y-84454750D01*
X158579500Y-85295309D01*
X158676173Y-85528698D01*
X158854801Y-85707327D01*
X159088190Y-85804000D01*
X160178750Y-85804000D01*
X160337500Y-85645250D01*
X160337500Y-84296000D01*
X160591500Y-84296000D01*
X160591500Y-85645250D01*
X160750250Y-85804000D01*
X161840810Y-85804000D01*
X162074199Y-85707327D01*
X162252827Y-85528698D01*
X162349500Y-85295309D01*
X162349500Y-84454750D01*
X162190750Y-84296000D01*
X160591500Y-84296000D01*
X160337500Y-84296000D01*
X158738250Y-84296000D01*
X158579500Y-84454750D01*
X156619990Y-84454750D01*
X156619990Y-83704430D01*
X156575712Y-83469113D01*
X156436640Y-83252989D01*
X156224440Y-83107999D01*
X155972550Y-83056990D01*
X155172450Y-83056990D01*
X154937133Y-83101268D01*
X154721009Y-83240340D01*
X154621868Y-83385437D01*
X154536640Y-83252989D01*
X154432500Y-83181833D01*
X154432500Y-83042691D01*
X158579500Y-83042691D01*
X158579500Y-83883250D01*
X158738250Y-84042000D01*
X160337500Y-84042000D01*
X160337500Y-82692750D01*
X160178750Y-82534000D01*
X159088190Y-82534000D01*
X158854801Y-82630673D01*
X158676173Y-82809302D01*
X158579500Y-83042691D01*
X154432500Y-83042691D01*
X154432500Y-82288440D01*
X155755600Y-82288440D01*
X155990917Y-82244162D01*
X156207041Y-82105090D01*
X156352031Y-81892890D01*
X156403040Y-81641000D01*
X156403040Y-80929000D01*
X158567060Y-80929000D01*
X158567060Y-81169000D01*
X158611338Y-81404317D01*
X158750410Y-81620441D01*
X158962610Y-81765431D01*
X159214500Y-81816440D01*
X161714500Y-81816440D01*
X161949817Y-81772162D01*
X162165941Y-81633090D01*
X162310931Y-81420890D01*
X162361940Y-81169000D01*
X162361940Y-80454750D01*
X165755000Y-80454750D01*
X165755000Y-81295309D01*
X165851673Y-81528698D01*
X166030301Y-81707327D01*
X166263690Y-81804000D01*
X167354250Y-81804000D01*
X167513000Y-81645250D01*
X167513000Y-80296000D01*
X167767000Y-80296000D01*
X167767000Y-81645250D01*
X167925750Y-81804000D01*
X169016310Y-81804000D01*
X169249699Y-81707327D01*
X169428327Y-81528698D01*
X169525000Y-81295309D01*
X169525000Y-80454750D01*
X169366250Y-80296000D01*
X167767000Y-80296000D01*
X167513000Y-80296000D01*
X165913750Y-80296000D01*
X165755000Y-80454750D01*
X162361940Y-80454750D01*
X162361940Y-79346362D01*
X162779802Y-78928500D01*
X165802300Y-78928500D01*
X165755000Y-79042691D01*
M02*
