G04 #@! TF.FileFunction,Soldermask,Bot*
%FSLAX46Y46*%
G04 Gerber Fmt 4.6, Leading zero omitted, Abs format (unit mm)*
G04 Created by KiCad (PCBNEW 4.0.2-stable) date 02.07.2016 15:57:05*
%MOMM*%
G01*
G04 APERTURE LIST*
%ADD10C,0.100000*%
%ADD11R,2.432000X2.127200*%
%ADD12O,2.432000X2.127200*%
%ADD13R,2.127200X2.127200*%
%ADD14O,2.127200X2.127200*%
%ADD15C,1.924000*%
%ADD16O,1.670000X1.924000*%
%ADD17R,4.057600X2.432000*%
%ADD18R,1.416000X2.432000*%
%ADD19R,2.400000X2.900000*%
%ADD20R,1.700000X1.700000*%
%ADD21C,1.700000*%
%ADD22C,2.600000*%
G04 APERTURE END LIST*
D10*
D11*
X145669000Y-85979000D03*
D12*
X145669000Y-88519000D03*
X145669000Y-91059000D03*
X145669000Y-93599000D03*
X145669000Y-96139000D03*
X145669000Y-98679000D03*
D13*
X183642000Y-104394000D03*
D14*
X183642000Y-101854000D03*
X186182000Y-104394000D03*
X186182000Y-101854000D03*
X188722000Y-104394000D03*
X188722000Y-101854000D03*
D11*
X149479000Y-85979000D03*
D12*
X149479000Y-88519000D03*
X149479000Y-91059000D03*
X149479000Y-93599000D03*
X149479000Y-96139000D03*
X149479000Y-98679000D03*
D15*
X163719500Y-103425000D03*
X163719500Y-83425000D03*
D16*
X179070000Y-89535000D03*
X177292000Y-89535000D03*
D11*
X190881000Y-81661000D03*
D12*
X190881000Y-84201000D03*
X190881000Y-86741000D03*
X190881000Y-89281000D03*
X190881000Y-91821000D03*
X190881000Y-94361000D03*
D11*
X186372500Y-81724500D03*
D12*
X186372500Y-84264500D03*
X186372500Y-86804500D03*
D17*
X179451000Y-79883000D03*
D18*
X179451000Y-86487000D03*
X177165000Y-86487000D03*
X181737000Y-86487000D03*
D19*
X187547000Y-92837000D03*
X183547000Y-92837000D03*
X180181000Y-92837000D03*
X176181000Y-92837000D03*
D20*
X176657000Y-105727500D03*
D21*
X176657000Y-103227500D03*
D19*
X154781000Y-80391000D03*
X150781000Y-80391000D03*
X176181000Y-96520000D03*
X180181000Y-96520000D03*
X187547000Y-96456500D03*
X183547000Y-96456500D03*
D22*
X146253200Y-80314800D03*
X146405600Y-104978200D03*
M02*
